<?xml version="1.0" encoding="utf-8"?>
<!-- Generator: Adobe Illustrator 25.0.0, SVG Export Plug-In . SVG Version: 6.00 Build 0)  -->
<svg version="1.1" xmlns="http://www.w3.org/2000/svg" xmlns:xlink="http://www.w3.org/1999/xlink" x="0px" y="0px"
	 viewBox="0 0 350.8 268.9" style="enable-background:new 0 0 350.8 268.9;" xml:space="preserve">
<style type="text/css">
	.st0{fill:#21437F;}
	.st1{fill:#8CB8FF;}
	.st2{fill:#4780FF;}
	.st3{fill:#41C9A7;}
	.st4{fill:none;stroke:#21437F;stroke-width:2;stroke-linecap:round;stroke-linejoin:round;stroke-miterlimit:10;}
	.st5{fill:none;stroke:#152E4D;stroke-linecap:round;stroke-linejoin:round;stroke-miterlimit:10;}
	.st6{opacity:0.4;fill:#DFE3E6;}
	.st7{fill:none;stroke:#21437F;stroke-width:2;stroke-miterlimit:10;}
	.st8{fill:#FFFFFF;}
	.st9{opacity:0.22;fill:#4780FF;}
	.st10{opacity:0.15;fill:#21437F;}
	.st11{opacity:0.4;fill:#FFFFFF;}
	.st12{opacity:0.15;}
	.st13{fill:none;stroke:#21437F;stroke-width:2;stroke-linecap:round;stroke-miterlimit:10;}
	.st14{opacity:0.15;fill:#A9ABBA;}
	.st15{fill:#FBFEFE;}
	.st16{fill:#38A384;}
	.st17{fill:#406FF9;}
	.st18{fill:#ECA881;}
	.st19{fill:#F6B18A;}
	.st20{fill:#282C52;}
	.st21{fill:#E4854D;}
	.st22{fill:none;stroke:#FFFFFF;stroke-width:2;stroke-linecap:round;stroke-linejoin:round;stroke-miterlimit:10;}
	.st23{fill:#21437F;stroke:#21437F;stroke-width:0.5;stroke-miterlimit:10;}
</style>
<g id="Layer_2">
</g>
<g id="Layer_1">
	<g>
		<path class="st17" d="M313.9,160.5c-0.2-0.3-0.2-0.8,0-1.1C313.9,159.7,313.9,160.1,313.9,160.5z"/>
		<path class="st17" d="M314,158c-0.1-0.1-0.1-0.3,0.1-0.4C314,157.8,314.1,157.9,314,158z"/>
		<path class="st17" d="M314,162c-0.2-0.1-0.2-0.2-0.1-0.4C314.1,161.8,314,161.9,314,162z"/>
		<path class="st17" d="M313.9,161c-0.1-0.1-0.1-0.2,0-0.3C314,160.8,313.9,160.9,313.9,161z"/>
		<path class="st17" d="M313.9,159c-0.1-0.1-0.1-0.1,0-0.2C313.9,158.9,313.9,158.9,313.9,159z"/>
		<g>
			<path class="st6" d="M36.8,145.9c-0.6-30,16.4-51.1,36.6-54.3s41.1-0.8,55.5-12.4s34.4-40.3,57.2-40.8
				c55.8-1.2,106.6,82.8,107.7,132.6c1.1,49.8-33.4,65-54.4,65.5s-44.9-26.6-71.2-26c-26.3,0.6-34.6,13.9-65,14.6
				C72.6,225.7,37.7,188.2,36.8,145.9z"/>
			<line class="st7" x1="279.9" y1="217.4" x2="284.7" y2="217.4"/>
			<polyline class="st7" points="54.7,217.4 70.1,217.4 131.9,217.4 198.9,217.4 208.2,217.4 250.4,217.4 262.4,217.4 273.3,217.4 
							"/>
			<g>
				<g>
					<path class="st8" d="M201,178.5c0.3-3,0.7-6,1-8.7c0,0,0,0,0,0c0.1-0.6,0.1-1.1,0.2-1.7c0.3-2.5-0.9-4.7-2.8-6
						c-0.3-0.2-0.7-0.4-1.1-0.6c-0.8-0.3-1.6-0.5-2.5-0.5h-42.7h-6.3h-42.7c-3.8,0-6.8,3.3-6.4,7.1c0.1,0.6,0.1,1.1,0.2,1.7
						c0,0,0,0,0,0c0.3,2.3,0.5,4.8,0.8,7.3c-4-0.2-7.8-1.5-10.9-4c-1.4-1.2-2.7-2.5-3.7-4.1c-0.5-0.8-1.8-4.7-2.5-5
						c-0.1,0-0.3,0-0.4,0c4.5-11.9,9.8-23.4,15.1-34.9c2-4.3,4.1-8.8,7.5-12.1c3.4-3.4,8.5-5.4,13-4c-3.1-2.4-7-6.3-9.4-9.4
						c-2.4-3.1-4.1-7-3.8-11c0.3-3.8,2.4-7.3,4.5-10.5c6.6-9.8,14.2-18.9,22.6-27.2c5.3-5.2,11.7-10.3,19.1-9.9
						c7.4-0.4,13.8,4.7,19.1,9.9c8.4,8.3,16,17.4,22.6,27.2c2.2,3.2,4.3,6.7,4.5,10.5c0.3,4-1.4,7.9-3.8,11c-2.4,3.1-6.3,7-9.4,9.4
						c4.6-1.4,9.6,0.7,13,4c3.4,3.4,5.5,7.8,7.5,12.1c5.3,11.6,10.7,23.3,15.2,35.2c0.2,1.5-0.9,2.9-2,4
						C212.3,172.9,206.9,176.3,201,178.5L201,178.5z M164.8,121.8c4.2-5.1,8-10.4,11.3-16.1c1.6-2.8,3.2-5.7,3.8-8.9
						c0.6-3.2,0-6.6-2.1-9.1c-1.9-2.2-4.7-3.4-7.5-4.3c-0.4-0.1-0.8-0.3-1.2-0.4c-6-1.8-12.2-2.8-18.5-2.8c-0.2,0-0.4,0-0.5,0
						c-0.1,0-0.1,0-0.2,0c-0.2,0-0.4,0-0.5,0c-6.6,0.1-13.1,1.1-19.3,3.1h0c-0.1,0-0.3,0.1-0.4,0.1c-2.8,0.9-5.6,2.1-7.5,4.3
						c-2.1,2.5-2.7,6-2.1,9.1c0.6,3.2,2.1,6.1,3.8,8.9c3.2,5.4,6.8,10.6,10.8,15.5c1.8,2.2,3.7,4.4,5.7,6.5c1.5,1.5,3,3.1,4.9,4
						c1.4,0.7,3.1,1.1,4.6,1c1.6,0.2,3.2-0.2,4.7-1c1.9-1,3.5-2.5,4.9-4C161.4,125.8,163.1,123.8,164.8,121.8L164.8,121.8z"/>
					<path class="st0" d="M130.1,83.7c0.1,4.6,0.3,9.3,1.3,13.8c1,4.5,3.1,8.9,6.5,12c0.2,0.2,0.5,0.4,0.7,0.6
						c-0.7,3.9-2.1,7.6-4.1,11.1h0c-4-4.9-7.7-10.1-10.8-15.5c-1.6-2.8-3.2-5.7-3.8-8.9c-0.6-3.2-0.1-6.6,2.1-9.1
						c1.9-2.2,4.7-3.4,7.5-4.3c0.1,0,0.3-0.1,0.4-0.1h0L130.1,83.7z"/>
					<path class="st0" d="M170.3,83.4c2.8,0.9,5.6,2.1,7.5,4.3c2.1,2.5,2.7,6,2.1,9.1c-0.6,3.2-2.1,6.1-3.8,8.9
						c-3.3,5.6-7.1,11-11.3,16.1c-2.2-3.7-3.7-7.6-4.4-11.7c0.3-0.2,0.5-0.4,0.7-0.6c3.4-3.1,5.5-7.5,6.5-12
						c1.1-4.5,1.2-9.1,1.3-13.8l0.1-0.7C169.5,83.2,169.9,83.3,170.3,83.4z"/>
					<path class="st18" d="M164.8,121.8L164.8,121.8c-1.7,2-3.4,4-5.2,5.9c-1.5,1.5-3,3.1-4.9,4c-1.4,0.7-3.1,1.1-4.7,1
						c-1.6,0.2-3.2-0.2-4.6-1c-1.9-1-3.5-2.5-4.9-4c-2-2.1-3.9-4.2-5.7-6.5h0c2-3.5,3.4-7.2,4.1-11.1c3,2.6,6.9,4.9,10.8,4.9
						c3.7,0,7.8-2.3,10.8-4.8C161.1,114.2,162.6,118.1,164.8,121.8z"/>
					<path class="st19" d="M150.6,80.2c6.3,0.1,12.5,1,18.5,2.8l-0.1,0.7c-0.1,4.6-0.3,9.3-1.3,13.8c-1,4.5-3.1,8.9-6.5,12
						c-0.2,0.2-0.5,0.4-0.7,0.6c-3,2.6-7.1,4.8-10.8,4.8c-3.9,0-7.8-2.3-10.8-4.9c-0.3-0.2-0.5-0.4-0.7-0.6c-3.4-3.1-5.5-7.5-6.5-12
						c-1-4.5-1.2-9.1-1.3-13.8l-0.1-0.4c6.2-2,12.8-3,19.3-3.1c0.2,0,0.4,0,0.5,0c0.1,0,0.1,0,0.2,0
						C150.2,80.2,150.4,80.2,150.6,80.2z"/>
					<path class="st2" d="M222.7,175.5c0.3,1.1,0.5,2.2,0.6,3.3c-0.5-2.3-1.2-4.7-2-6.9c-0.9-2.5-1.8-5-2.7-7.5
						c0-0.2-0.1-0.4-0.1-0.6C220.4,167.6,221.7,171.4,222.7,175.5z"/>
					<path class="st20" d="M202.2,168.1c-0.1,0.6-0.1,1.1-0.2,1.7c0,0,0,0,0,0C202,169.2,202.1,168.7,202.2,168.1z"/>
					<path class="st2" d="M195.8,165.1c3,0,5.4,2,6.2,4.7c-0.3,2.7-0.6,5.6-1,8.7c-1,8.6-2,18.1-2.9,26c-0.2,2.2-0.5,4.3-0.7,6.3
						c-0.4,3.8-3.6,6.6-7.4,6.6c-15.7,0-40,0-40,0s-24.3,0-40,0c-3.8,0-7-2.8-7.4-6.6c-0.2-1.9-0.5-4.1-0.7-6.3
						c-0.4-3.8-0.9-7.9-1.3-12l-1.3-15.3c-0.1,0-0.3,0-0.4,0c-0.3-2.6-0.6-5-0.8-7.3c0.7-2.7,3.2-4.7,6.2-4.7H195.8z M154.7,189.4
						c0-2.6-2.1-4.7-4.7-4.7c-2.6,0-4.7,2.1-4.7,4.7c0,2.6,2.1,4.7,4.7,4.7C152.6,194.1,154.7,192,154.7,189.4z"/>
					<path class="st9" d="M210,201c-3.7,2.3-7.7,4.5-11.9,4.5l2.9-26.9c5.9-2.2,11.2-5.7,15.6-10.1c1.1-1.1,2.2-2.6,2-4
						c0.9,2.5,1.8,5,2.7,7.5c0.8,2.3,1.5,4.6,2,6.9c0.4,3.1,0.3,6.2-0.7,9.2c-1.7,4.9-5.6,8.8-10.1,11.5
						C211.8,199.9,210.9,200.4,210,201C210.1,200.9,210,201,210,201z"/>
					<path class="st20" d="M198.3,161.5c0.4,0.2,0.7,0.4,1.1,0.6C199,161.9,198.7,161.7,198.3,161.5z"/>
					<path class="st8" d="M150,184.7c2.6,0,4.7,2.1,4.7,4.7c0,2.6-2.1,4.7-4.7,4.7c-2.6,0-4.7-2.1-4.7-4.7
						C145.3,186.8,147.4,184.7,150,184.7z"/>
					<path class="st2" d="M99.2,177.2l1.3,15.3c-0.6-5.1-1.2-10.4-1.7-15.3C98.9,177.2,99,177.2,99.2,177.2z"/>
					<path class="st9" d="M98.8,177.2c0.5,4.9,1.1,10.2,1.7,15.3l1,11.7c-5.1-1.4-10.2-3.1-14.8-5.8c-4.3-2.4-8.1-6-9.9-10.6
						c-0.1-0.4-0.2-0.8-0.3-1.2c-1.1-4.9,0.4-10,2.1-14.8c0.9-2.6,1.8-5.2,2.8-7.7c0.1,0,0.3,0,0.4,0c0.7,0.2,2,4.2,2.5,5
						c1,1.5,2.3,2.9,3.7,4.1C91,175.7,94.8,177,98.8,177.2z"/>
					<path class="st8" d="M104.2,165.1c-3,0-5.5,2-6.2,4.7c-0.1-0.6-0.1-1.1-0.2-1.7c-0.4-3.8,2.6-7.1,6.4-7.1h42.7h6.3h42.7
						c0.9,0,1.8,0.2,2.5,0.5c0.4,0.2,0.7,0.4,1.1,0.6c1.9,1.3,3.1,3.6,2.8,6c-0.1,0.5-0.1,1.1-0.2,1.7c-0.7-2.7-3.2-4.7-6.2-4.7
						H104.2z"/>
					<path class="st20" d="M98,169.8C98,169.8,98,169.8,98,169.8c-0.1-0.6-0.1-1.1-0.2-1.7C97.8,168.7,97.9,169.3,98,169.8z"/>
					<path class="st2" d="M78.5,171.9c-1.7,4.8-3.2,9.9-2.1,14.8c0.1,0.4,0.2,0.8,0.3,1.2c-0.1-0.3-0.3-0.6-0.4-1
						c-1.3-3.9-1-8.2,0.1-12.2c0.4-1.5,2.9-10,4.9-10.6C80.3,166.7,79.4,169.3,78.5,171.9z"/>
				</g>
				<path class="st21" d="M154.7,119c0.7,1,0.8,2.3,0.8,3.5c0,2.2-0.3,4.5-1.5,6.4c-1.1,1.9-3.1,3.5-5.3,3.6
					c1.7,0.8,3.8,0.5,5.5-0.4s3.1-2.2,4.4-3.6c2.2-2.1,4.3-4.2,6.5-6.3l-3.7-7.1c-0.7-1.8-1.1-3.7-1.1-5.6c-2.2,1.6-4.3,3.2-6.8,4.1
					c-1.8,0.7-3.5,0.5-5.3,0.8c-1.4,0.2-2.1,0.9-0.6,1.7C149.9,117.6,153,116.6,154.7,119z"/>
				<circle class="st8" cx="150" cy="189.4" r="4.7"/>
				<g>
					<path class="st4" d="M150,45c-7.4-0.4-13.8,4.7-19.1,9.9c-8.4,8.3-16,17.4-22.6,27.2c-2.2,3.2-4.3,6.7-4.5,10.5
						c-0.3,4,1.4,7.9,3.8,11c2.4,3.1,6.3,7,9.4,9.4c-4.6-1.4-9.6,0.7-13,4c-3.4,3.4-5.5,7.8-7.5,12.1c-6.4,14-12.9,28.1-17.9,42.7
						c-1.6,4.8-3.1,9.9-2.1,14.8c1.1,5.2,5,9.5,9.6,12.2c4.5,2.8,9.7,4.3,14.8,5.7"/>
					<line class="st4" x1="133.5" y1="119.8" x2="132.7" y2="145.1"/>
					<path class="st4" d="M146.9,161h-42.7c-3.8,0-6.8,3.3-6.4,7.1c1.2,10.5,2.8,25,4.1,36.4c0.2,2.2,0.5,4.4,0.7,6.3
						c0.4,3.8,3.6,6.6,7.4,6.6c15.7,0,40,0,40,0"/>
					<path class="st4" d="M150,45c7.4-0.4,13.8,4.7,19.1,9.9c8.4,8.3,16,17.4,22.6,27.2c2.2,3.2,4.3,6.7,4.5,10.5
						c0.3,4-1.4,7.9-3.8,11c-2.4,3.1-6.3,7-9.4,9.4c4.6-1.4,9.6,0.7,13,4c3.4,3.4,5.5,7.8,7.5,12.1c6.4,14,12.9,28.1,17.9,42.7
						c1.6,4.8,3.1,9.9,2.1,14.8c-1.1,5.2-5,9.5-9.6,12.2c-4.5,2.8-9.7,4.3-14.8,5.7"/>
					<path class="st4" d="M150.1,80.2c0.2,0,0.4,0,0.5,0"/>
					<path class="st4" d="M149.4,80.2c0.2,0,0.4,0,0.5,0c0.1,0,0.1,0,0.2,0c6.4,0,12.9,1,19,2.8c0.4,0.1,0.8,0.3,1.2,0.4
						c2.8,0.9,5.6,2.1,7.5,4.3c2.1,2.5,2.7,6,2.1,9.1c-0.6,3.2-2.1,6.1-3.8,8.9c-4.6,7.9-10.2,15.2-16.6,21.9
						c-1.5,1.5-3,3.1-4.9,4.1c-1.4,0.7-3.1,1.1-4.7,1c-1.6,0.2-3.2-0.2-4.6-1c-1.9-1-3.5-2.5-4.9-4.1c-6.4-6.7-11.9-14.1-16.6-21.9
						c-1.6-2.8-3.2-5.7-3.8-8.9c-0.6-3.2,0-6.6,2.1-9.1c1.9-2.2,4.7-3.4,7.5-4.3c0.1,0,0.2-0.1,0.4-0.1c6.4-2.1,13.1-3.1,19.9-3.1"
						/>
					<line class="st4" x1="166.5" y1="119.8" x2="167.3" y2="145.1"/>
					<path class="st4" d="M146.9,161h6.3h42.7c3.8,0,6.8,3.3,6.4,7.1c-1.2,10.5-2.8,25-4.1,36.4c-0.2,2.2-0.5,4.4-0.7,6.3
						c-0.4,3.8-3.6,6.6-7.4,6.6c-15.7,0-40,0-40,0"/>
					<path class="st4" d="M169,83.7c-0.1,4.6-0.3,9.3-1.3,13.7c-1,4.5-3.1,8.9-6.5,12c-3.1,2.8-7.6,5.5-11.6,5.5
						c-4.2,0-8.5-2.7-11.6-5.5c-3.4-3.1-5.5-7.5-6.5-12c-1-4.5-1.2-9.1-1.3-13.7"/>
				</g>
				<path class="st4" d="M138.7,110.1c-0.7,3.9-2.1,7.6-4.1,11.1"/>
				<path class="st4" d="M160.4,110.1c0.8,4.1,2.3,8,4.4,11.7"/>
				<path class="st4" d="M112.4,150.7c0.3,3.2,0.3,6.5,0.1,9.7"/>
				<path class="st4" d="M186.6,150.7c-0.3,3.2-0.3,6.5-0.1,9.7"/>
			</g>
			<g>
				<g>
					<path class="st0" d="M149.6,84.2c-6.6,0.4-13.2,0.1-19.8-0.9l1.7,11.9c2.1-0.1,4.1,0.5,6.1,0.9c2,0.4,4.2,0.5,6.1-0.4
						c1-0.5,1.8-1.2,2.7-1.7c0.9-0.5,2.1-0.4,3.1-0.4c1,0,2.1-0.1,3.1,0.4c0.9,0.5,1.8,1.2,2.7,1.7c1.9,0.9,4.1,0.8,6.1,0.4
						c2-0.4,4.1-0.9,6.1-0.9l1.7-11.9C162.8,84.3,156.2,84.6,149.6,84.2z M144,91.5c-0.8,0.5-1.8,0.8-2.7,0.9
						c-1.1,0.2-2.1,0.3-3.2,0.3c-0.7,0-1.4,0-2-0.3c-0.8-0.4-1.2-1.2-1.5-2c-0.2-0.8-0.2-1.5-0.4-2.3c3.6,1.1,7.5,1.5,11.3,1.1
						C145.6,90.1,144.8,91,144,91.5z M164.5,90.4c-0.2,0.8-0.7,1.6-1.5,2c-0.6,0.3-1.3,0.3-2,0.3c-1.1,0-2.1-0.1-3.2-0.3
						c-1-0.2-1.9-0.4-2.7-0.9c-0.8-0.5-1.5-1.4-1.5-2.3c3.8,0.4,7.6,0,11.3-1.1C164.7,88.9,164.8,89.6,164.5,90.4z"/>
					<path class="st0" d="M145.5,89.1c0,0.9-0.7,1.8-1.5,2.3c-0.8,0.5-1.8,0.8-2.7,0.9c-1.1,0.2-2.1,0.3-3.2,0.3c-0.7,0-1.4,0-2-0.3
						c-0.8-0.4-1.2-1.2-1.5-2c-0.2-0.8-0.2-1.5-0.4-2.3C137.9,89.1,141.7,89.5,145.5,89.1z"/>
					<path class="st8" d="M145.5,89.1c0,0.9-0.7,1.8-1.5,2.3c-0.8,0.5-1.8,0.8-2.7,0.9c-1.1,0.2-2.1,0.3-3.2,0.3c-0.7,0-1.4,0-2-0.3
						c-0.8-0.4-1.2-1.2-1.5-2c-0.2-0.8-0.2-1.5-0.4-2.3C137.9,89.1,141.7,89.5,145.5,89.1z"/>
				</g>
				<g>
					<path class="st0" d="M164.9,88c-0.2,0.8-0.2,1.5-0.4,2.3c-0.2,0.8-0.7,1.6-1.5,2c-0.6,0.3-1.3,0.3-2,0.3
						c-1.1,0-2.1-0.1-3.2-0.3c-1-0.2-1.9-0.4-2.7-0.9c-0.8-0.5-1.5-1.4-1.5-2.3C157.4,89.5,161.3,89.1,164.9,88z"/>
					<path class="st8" d="M164.9,88c-0.2,0.8-0.2,1.5-0.4,2.3c-0.2,0.8-0.7,1.6-1.5,2c-0.6,0.3-1.3,0.3-2,0.3
						c-1.1,0-2.1-0.1-3.2-0.3c-1-0.2-1.9-0.4-2.7-0.9c-0.8-0.5-1.5-1.4-1.5-2.3C157.4,89.5,161.3,89.1,164.9,88z"/>
				</g>
			</g>
			<g>
				<g>
					<path class="st0" d="M146.4,97.8c0.3,0.3,0.4,0.7,0.7,1c0.2,0.3,0.5,0.6,0.9,0.8c0.6,0.5,1.4,0.8,2.2,0.7
						c1.7,0,2.9-1.6,3.9-2.8c0.3-0.3-0.2-0.8-0.5-0.5c-0.5,0.5-1.1,1-1.7,1.4c-0.5,0.4-1.1,0.9-1.8,0.9c-0.6,0-1.3-0.2-1.8-0.6
						c-0.3-0.2-0.5-0.4-0.8-0.6c-0.3-0.2-0.6-0.4-0.9-0.7C146.5,97.3,146.2,97.6,146.4,97.8L146.4,97.8z"/>
				</g>
			</g>
			<g>
				<g>
					<path class="st0" d="M144.1,102.4c0.8,0.7,1.4,1.6,2.4,2c1,0.5,2.2,0.6,3.3,0.6c1.1,0,2.2-0.1,3.3-0.5c0.5-0.2,0.9-0.5,1.4-0.8
						c0.4-0.3,0.7-0.7,1.1-1.1c0.4-0.4-0.3-1-0.6-0.6c-0.5,0.7-1.6,1-2.4,1.3c-0.9,0.3-1.9,0.4-2.9,0.4c-1,0-1.9,0-2.8-0.4
						c-0.9-0.3-1.8-0.6-2.6-1.1C144.1,102.2,144,102.3,144.1,102.4L144.1,102.4z"/>
				</g>
			</g>
			<g>
				<g>
					<path class="st0" d="M148.6,107.2c0.1,0.1,0.2,0.2,0.4,0.3c0.1,0.1,0.3,0.1,0.4,0.2c0.3,0.1,0.7,0.1,1-0.1
						c0.2-0.1,0.3-0.2,0.2-0.4c-0.1-0.2-0.3-0.2-0.5-0.2c0,0-0.1,0-0.1,0c0,0,0.1,0,0,0c0,0,0,0,0,0c-0.1,0-0.1,0-0.2,0.1
						c0,0,0,0,0,0c0,0,0.1,0,0,0c0,0-0.1,0-0.1,0c0,0-0.1,0-0.1,0c0,0,0,0-0.1,0c0,0-0.1,0,0,0c-0.1,0-0.1,0-0.2,0
						c-0.1,0-0.1,0-0.2,0c-0.1,0-0.2-0.1-0.3-0.2C148.6,106.8,148.4,107.1,148.6,107.2L148.6,107.2z"/>
				</g>
			</g>
			<g>
				<g>
					<g class="st12">
						<g>
							<circle class="st0" cx="225" cy="141.2" r="41.2"/>
							<circle class="st0" cx="225" cy="141.2" r="41.2"/>
						</g>
					</g>
					<g>
						<circle class="st8" cx="230.5" cy="138.1" r="41.2"/>
						<circle class="st7" cx="230.5" cy="138.1" r="41.2"/>
					</g>
				</g>
				<g>
					<path class="st3" d="M229.1,111.9c6.8,4.6,15.6,6.1,23.5,4.2v26.2c0,2.6-0.4,5.2-1.4,7.6c-1.6,4-4.1,7.7-7.1,10.7
						c-4.3,4.2-9.5,7.3-15,9.7c-5.5-2.4-10.7-5.5-15-9.7c-3.1-3-5.6-6.7-7.1-10.7c-1-2.4-1.4-5-1.4-7.6v-26.2
						C213.5,118.1,222.2,116.5,229.1,111.9z"/>
					<path class="st4" d="M229.1,111.9c6.8,4.6,15.6,6.1,23.5,4.2v26.2c0,2.6-0.4,5.2-1.4,7.6c-1.6,4-4.1,7.7-7.1,10.7
						c-4.3,4.2-9.5,7.3-15,9.7c-5.5-2.4-10.7-5.5-15-9.7c-3.1-3-5.6-6.7-7.1-10.7c-1-2.4-1.4-5-1.4-7.6v-26.2
						C213.5,118.1,222.2,116.5,229.1,111.9z"/>
					<path class="st8" d="M229.1,118c5.4,3.6,12.3,4.8,18.7,3.3v20.8c0,2.1-0.3,4.1-1.1,6c-1.3,3.2-3.2,6.1-5.7,8.5
						c-3.4,3.3-7.6,5.8-11.9,7.7c-4.3-1.9-8.5-4.4-11.9-7.7c-2.4-2.4-4.4-5.3-5.7-8.5c-0.8-1.9-1.1-4-1.1-6v-20.8
						C216.7,122.8,223.7,121.6,229.1,118z"/>
				</g>
				<path class="st3" d="M234.7,136.3c-0.7-0.6-1.5-1.1-2.4-1.5c-1.6-0.7-3.3-0.9-5.1-0.7c-1.7,0.2-3.3,0.7-4.7,1.7
					c-0.1,0.1-0.2,0.1-0.2,0.2c-0.4-0.1-0.9-0.2-1.3-0.3c-1.4-0.4-2.6-1-3.8-1.8c-0.8-0.5-1.6-1.2-2.2-1.9c-0.1-0.1-0.2-0.2-0.3-0.2
					c0-0.2,0.1-0.3,0.2-0.3c1.6-1.1,3.4-2,5.2-2.6c1.2-0.4,2.5-0.7,3.8-0.9c1-0.2,1.9-0.2,2.9-0.3c0.4,0,0.9,0,1.3,0
					c1.5,0,3.1,0.1,4.6,0.4c2.4,0.4,4.7,1.2,6.9,2.4c0.8,0.4,1.5,0.9,2.2,1.4c0.1,0.1,0.2,0.1,0.2,0.2c-0.1,0.5-0.5,0.9-0.9,1.3
					c-0.9,0.9-2.1,1.6-3.3,2.1c-0.6,0.3-1.3,0.5-2,0.7C235.5,136.1,235.1,136.3,234.7,136.3z"/>
				<path class="st0" d="M228.3,152.2c-1.5,0-3,0-4.5,0c-0.3,0-0.3,0-0.2-0.3c1-2.4,1.9-4.7,2.9-7.1c0.1-0.3,0.2-0.5,0.3-0.8
					c0.1-0.2,0-0.3-0.1-0.3c-0.5-0.2-0.9-0.6-1.3-1c-1.9-2.1-1-5.5,1.6-6.5c1.7-0.6,3.2-0.3,4.5,0.9c0.7,0.7,1.1,1.6,1.2,2.6
					c0.1,1.8-0.7,3.1-2.3,3.9c-0.3,0.2-0.3,0.2-0.2,0.5c0.6,1.4,1.1,2.7,1.7,4.1c0.5,1.2,0.9,2.4,1.4,3.6c0.1,0.3,0,0.3-0.2,0.3
					C231.3,152.2,229.8,152.2,228.3,152.2z"/>
				<path class="st16" d="M214.6,131.7c0.2,0,0.2,0.1,0.3,0.2c0.7,0.7,1.4,1.4,2.2,1.9c1.2,0.8,2.4,1.4,3.8,1.8
					c0.4,0.1,0.9,0.2,1.3,0.3c0,0.1,0,0.2,0,0.3c-0.1,0-0.1,0.1-0.1,0.2c0,0.2,0,0.3-0.1,0.5c-0.2,0.1-0.1,0.2,0,0.3
					c0,0.2,0,0.4,0,0.6c-0.1,0-0.1,0.1,0,0.1c0,0.1,0,0.2,0,0.3c-0.2,0.2-0.2,0.6,0,0.8c0,0.1,0,0.1,0,0.2c-0.1,0.1-0.1,0.2,0,0.2
					c0,0.2,0,0.3,0,0.5c-0.1,0.1-0.1,0.2,0.1,0.3c0,0.1,0,0.3,0.1,0.4c-0.1,0.1-0.1,0.1,0.1,0.2c0,0.1,0,0.2,0.1,0.3
					c-0.1,0.1,0,0.1,0,0.1c0.3,0.9,0.7,1.8,1.4,2.5c0.1,0.1,0.1,0.2,0.1,0.3c-0.9,2.1-1.8,4.1-2.7,6.2c-0.1,0.3-0.2,0.3-0.4,0.1
					c-1.8-1.9-3.3-4.1-4.4-6.6c-0.7-1.8-1.3-3.6-1.5-5.5c-0.2-1.3-0.3-2.6-0.3-4C214.6,133.5,214.6,132.6,214.6,131.7z"/>
				<path class="st16" d="M234.7,136.3c0.4,0,0.8-0.2,1.2-0.3c0.7-0.2,1.3-0.4,2-0.7c1.2-0.5,2.3-1.2,3.3-2.1
					c0.4-0.4,0.7-0.8,0.9-1.3c0.1,0,0.1,0.1,0.1,0.2c0,0.5,0.1,1.1,0.1,1.6c0,1.1-0.1,2.1-0.2,3.1c-0.2,0.9-0.3,1.9-0.6,2.8
					c-0.2,0.8-0.5,1.6-0.8,2.4c-0.6,1.5-1.2,3.1-2,4.5c-0.8,1.4-1.6,2.8-2.6,4c-0.1,0.2-0.2,0.2-0.3,0c-0.7-1.5-1.4-2.9-2.1-4.4
					c-0.3-0.6-0.6-1.1-0.8-1.7c-0.1-0.2-0.1-0.3,0.1-0.5c1.2-1.3,2.1-2.9,2.2-4.8C235,138.2,234.9,137.2,234.7,136.3z"/>
			</g>
			<path class="st17" d="M215.5,155.5c-0.1-0.1-0.1-0.2,0.1-0.2C215.5,155.4,215.6,155.4,215.5,155.5z"/>
			<path class="st17" d="M215.5,159.9c-0.1,0-0.1-0.1-0.1-0.2C215.5,159.8,215.5,159.8,215.5,159.9z"/>
			<path class="st17" d="M215.6,160.4c-0.1,0-0.1,0,0-0.1C215.7,160.3,215.7,160.3,215.6,160.4z"/>
		</g>
	</g>
</g>
</svg>
