<svg xmlns="http://www.w3.org/2000/svg" viewBox="0 0 130 130"><defs><style>.cls-1{fill:#eef5f7;}.cls-2{fill:#4e7ff7;}.cls-3{fill:#262626;}.cls-4{fill:#fff;}.cls-5{fill:#8fb9f5;}</style></defs><g id="Layer_2" data-name="Layer 2"><g id="Layer_1-2" data-name="Layer 1"><path class="cls-1" d="M130,65A65,65,0,1,1,65,0,65,65,0,0,1,130,65Z"/><circle class="cls-2" cx="98.54" cy="100.05" r="14.95"/><circle class="cls-2" cx="31.46" cy="100.05" r="14.95"/><path class="cls-3" d="M98.54,116a15.95,15.95,0,1,1,15.95-16A16,16,0,0,1,98.54,116Zm0-29.89a13.95,13.95,0,1,0,13.95,13.94A14,14,0,0,0,98.54,86.11Z"/><circle class="cls-4" cx="98.54" cy="100.05" r="6.51"/><path class="cls-4" d="M31.46,106.57A6.52,6.52,0,1,1,38,100.05,6.53,6.53,0,0,1,31.46,106.57Z"/><path class="cls-3" d="M98.54,107.57a7.52,7.52,0,1,1,7.52-7.52A7.52,7.52,0,0,1,98.54,107.57Zm0-13a5.52,5.52,0,1,0,5.52,5.51A5.51,5.51,0,0,0,98.54,94.54Z"/><path class="cls-3" d="M31.46,101.05a1,1,0,0,1-.92-1.39l11.14-25.8a1,1,0,0,1,1.84.8l-10.38,24,28.44-5.94a1,1,0,1,1,.4,2L31.66,101A.71.71,0,0,1,31.46,101.05Z"/><path class="cls-5" d="M90.66,73.89,73.26,97.38a4.22,4.22,0,0,1-3.39,1.7H60.41A4.2,4.2,0,0,1,56.34,96l-3.52-13H49.26a9.38,9.38,0,0,1-6.77-3A46.2,46.2,0,0,0,22.47,68,5,5,0,0,1,18.9,63.2V59.65l28.21,9.69a19.8,19.8,0,0,0,6.47,1.09h8.79L85.85,65Z"/><path class="cls-3" d="M69.87,100.08H60.41a5.23,5.23,0,0,1-5-3.85l-3.32-12.3H49.26a10.29,10.29,0,0,1-7.49-3.32A45.27,45.27,0,0,0,22.18,69,6,6,0,0,1,17.9,63.2V59.65a1,1,0,0,1,1.32-.94L47.43,68.4a19,19,0,0,0,6.15,1h8.68l23.36-5.37a1,1,0,0,1,1.1.5l4.81,8.85a1,1,0,0,1-.07,1.07L74.06,98A5.23,5.23,0,0,1,69.87,100.08ZM54.12,83.93,57.3,95.71a3.22,3.22,0,0,0,3.11,2.37h9.46a3.21,3.21,0,0,0,2.58-1.3l17-23-4.14-7.62L62.6,71.4a.91.91,0,0,1-.23,0H53.58a21,21,0,0,1-6.8-1.14L19.9,61.05V63.2a4,4,0,0,0,2.85,3.87A47.37,47.37,0,0,1,43.22,79.23a8.32,8.32,0,0,0,6,2.7H63.72a1,1,0,0,1,0,2Z"/><path class="cls-3" d="M74.31,90.23a1,1,0,0,1-.59-.2,1,1,0,0,1-.21-1.4l2.83-3.82a1,1,0,0,1,1.4-.2A1,1,0,0,1,78,86l-2.83,3.83A1,1,0,0,1,74.31,90.23Z"/><path class="cls-3" d="M79.15,83.7a1,1,0,0,1-.8-1.6l.78-1a1,1,0,0,1,1.4-.21,1,1,0,0,1,.21,1.4L80,83.29A1,1,0,0,1,79.15,83.7Z"/><path class="cls-3" d="M53.58,75.42a25.11,25.11,0,0,1-3.78-.28,1,1,0,0,1,.3-2,22.56,22.56,0,0,0,3.48.26,1,1,0,0,1,0,2Zm-7.77-1.29a1,1,0,0,1-.33-.06L36,70.81a1,1,0,1,1,.65-1.89l9.48,3.26a1,1,0,0,1-.32,1.95Z"/><path class="cls-3" d="M68.37,91.57H55.19a1,1,0,0,1,0-2H68.37a1,1,0,0,1,0,2Z"/><path class="cls-3" d="M31.46,116a15.95,15.95,0,1,1,15.94-16A16,16,0,0,1,31.46,116Zm0-29.89A13.95,13.95,0,1,0,45.4,100.05,14,14,0,0,0,31.46,86.11Z"/><path class="cls-3" d="M31.46,107.57A7.52,7.52,0,1,1,39,100.05,7.52,7.52,0,0,1,31.46,107.57Zm0-13A5.52,5.52,0,1,0,37,100.05,5.52,5.52,0,0,0,31.46,94.54Z"/><path class="cls-2" d="M93.42,75.85H69.32a6.56,6.56,0,0,1-6.56-6.56h0S67.38,58.88,85.85,65Z"/><path class="cls-3" d="M93.42,76.85H69.32a7.57,7.57,0,0,1-7.56-7.56,1,1,0,0,1,.09-.41c.2-.46,5.2-11.16,24.31-4.79a1.06,1.06,0,0,1,.51.37l7.57,10.82a1,1,0,0,1,.07,1A1,1,0,0,1,93.42,76.85ZM63.76,69.51a5.57,5.57,0,0,0,5.56,5.34H91.5l-6.28-9C69.31,60.7,64.48,68.18,63.76,69.51Z"/><path class="cls-3" d="M108.44,80.37a1,1,0,0,1-.43-.1l-7.1-3.42H90.66a1,1,0,0,1,0-2h10.48a.91.91,0,0,1,.43.1l7.31,3.52a1,1,0,0,1,.47,1.33A1,1,0,0,1,108.44,80.37Z"/><path class="cls-3" d="M98.54,101.05a1,1,0,0,1-.94-.67l-16.54-47a3.79,3.79,0,0,0-3.16-2.45l-5-.56a1,1,0,0,1,.22-2l5,.56a5.78,5.78,0,0,1,4.82,3.76L99.49,99.72a1,1,0,0,1-.61,1.28A1.33,1.33,0,0,1,98.54,101.05Z"/><rect class="cls-5" x="84.13" y="60.05" width="7.5" height="18.47" rx="3.75" transform="translate(-19.88 39.09) rotate(-22.6)"/><path class="cls-3" d="M90,79.1a4.74,4.74,0,0,1-4.39-2.92L81.39,66.05a4.75,4.75,0,0,1,8.77-3.65h0l4.21,10.13a4.75,4.75,0,0,1-2.56,6.21A4.64,4.64,0,0,1,90,79.1ZM85.77,61.47a2.6,2.6,0,0,0-1,.22,2.74,2.74,0,0,0-1.48,3.59l4.21,10.13a2.75,2.75,0,0,0,5.08-2.11L88.31,63.17A2.75,2.75,0,0,0,85.77,61.47Z"/><path class="cls-2" d="M68.75,28v9.5a6.24,6.24,0,0,1-1.17,3.64l-11.44,16a6.24,6.24,0,0,1-10.14,0l-11.45-16a6.24,6.24,0,0,1-1.17-3.64V28a6.24,6.24,0,0,1,3.08-5.39l11.46-6.71a6.2,6.2,0,0,1,6.31,0l11.44,6.71A6.24,6.24,0,0,1,68.75,28Z"/><path class="cls-4" d="M51.07,54.45a1,1,0,0,1-.84-.43l-11.45-16a1,1,0,0,1-.2-.6V28a1.06,1.06,0,0,1,.51-.9l11.46-6.72a1.1,1.1,0,0,1,.52-.14,1.13,1.13,0,0,1,.53.14L63,27.06a1,1,0,0,1,.51.89v9.5a1,1,0,0,1-.2.61L51.91,54A1,1,0,0,1,51.07,54.45Z"/><path class="cls-3" d="M51.07,60.65a7.16,7.16,0,0,1-5.88-3l-11.45-16a7.2,7.2,0,0,1-1.36-4.22V28A7.27,7.27,0,0,1,36,21.71L47.41,15a7.26,7.26,0,0,1,7.33,0l11.44,6.71A7.28,7.28,0,0,1,69.75,28v9.5a7.2,7.2,0,0,1-1.36,4.22L57,57.63a7.17,7.17,0,0,1-5.89,3Zm0-44.65a5.25,5.25,0,0,0-2.65.72L37,23.44A5.24,5.24,0,0,0,34.38,28v9.49a5.21,5.21,0,0,0,1,3l11.46,16a5.15,5.15,0,0,0,4.25,2.18h0a5.21,5.21,0,0,0,4.26-2.18l11.44-16a5.21,5.21,0,0,0,1-3V28a5.23,5.23,0,0,0-2.59-4.51L53.72,16.72A5.2,5.2,0,0,0,51.07,16Z"/><path class="cls-3" d="M51.07,55.45a2,2,0,0,1-1.65-.85L38,38.64a2,2,0,0,1-.38-1.19V28a2,2,0,0,1,1-1.76L50,19.48a2.07,2.07,0,0,1,1-.28,2,2,0,0,1,1,.28L63.54,26.2a2,2,0,0,1,1,1.75v9.5a2,2,0,0,1-.38,1.19l-11.44,16A2,2,0,0,1,51.07,55.45Zm0-34.24L39.6,27.92l0,9.53,11.49,16h0l11.44-16V28Z"/><path class="cls-3" d="M52.81,46.9a1,1,0,0,1-.58-.19A1,1,0,0,1,52,45.32l5.59-7.81a1,1,0,0,1,1.4-.23,1,1,0,0,1,.23,1.39l-5.6,7.81A1,1,0,0,1,52.81,46.9Z"/><path class="cls-3" d="M48.83,39.5a1,1,0,0,1-.7-.29L44.89,36a1,1,0,1,1,1.42-1.41l2.52,2.52,7-7a1,1,0,0,1,1.42,0,1,1,0,0,1,0,1.41l-7.7,7.7A1,1,0,0,1,48.83,39.5Z"/><path class="cls-3" d="M114.66,116H15.34a1,1,0,0,1,0-2h99.32a1,1,0,0,1,0,2Z"/></g></g></svg>