<svg xmlns="http://www.w3.org/2000/svg" viewBox="0 0 130 130"><defs><style>.cls-1{fill:#eef5f7;}.cls-2{fill:#4e7ff7;}.cls-3{fill:#8fb9f5;}.cls-4{fill:#262626;}.cls-5{fill:#fff;}</style></defs><g id="Layer_2" data-name="Layer 2"><g id="Layer_1-2" data-name="Layer 1"><path class="cls-1" d="M130,65A65,65,0,1,1,65,0,65,65,0,0,1,130,65Z"/><path class="cls-2" d="M65.74,51.53l2.77,8.74H44.65l2.77-8.74a3.44,3.44,0,0,1,3.28-2.4H62.46A3.45,3.45,0,0,1,65.74,51.53Z"/><path class="cls-3" d="M39.06,99.19v12.67A3.13,3.13,0,0,1,35.93,115H27.57a3.13,3.13,0,0,1-3.14-3.14V99.19Z"/><path class="cls-3" d="M88.74,99.19v12.67A3.14,3.14,0,0,1,85.6,115H77.24a3.14,3.14,0,0,1-3.14-3.14V99.19Z"/><path class="cls-4" d="M35.93,116H27.57a4.14,4.14,0,0,1-4.14-4.14V99.19a1,1,0,0,1,1-1H39.06a1,1,0,0,1,1,1v12.67A4.14,4.14,0,0,1,35.93,116Zm-10.5-15.81v11.67A2.14,2.14,0,0,0,27.57,114h8.36a2.14,2.14,0,0,0,2.13-2.14V100.19Z"/><path class="cls-4" d="M85.6,116H77.24a4.15,4.15,0,0,1-4.14-4.14V99.19a1,1,0,0,1,1-1H88.74a1,1,0,0,1,1,1v12.67A4.15,4.15,0,0,1,85.6,116ZM75.1,100.19v11.67A2.14,2.14,0,0,0,77.24,114H85.6a2.14,2.14,0,0,0,2.14-2.14V100.19Z"/><path class="cls-2" d="M92.66,91V101.3A4.7,4.7,0,0,1,88,106H25.21a4.71,4.71,0,0,1-4.7-4.7V91a10,10,0,0,1,.11-1.44,9.15,9.15,0,0,1,2.05-4.37l3.83-4.61H86.68l3.76,4.53a9.28,9.28,0,0,1,2.22,5.82Z"/><path class="cls-4" d="M88,107H25.21a5.71,5.71,0,0,1-5.7-5.7V91a10.54,10.54,0,0,1,.12-1.59,10.14,10.14,0,0,1,2.27-4.85L25.73,80a1,1,0,0,1,.77-.36H86.68a1,1,0,0,1,.77.36l3.76,4.53a10.3,10.3,0,0,1,2.45,6.46V101.3A5.71,5.71,0,0,1,88,107ZM27,81.59l-3.53,4.25a8.13,8.13,0,0,0-1.83,3.89,7.8,7.8,0,0,0-.1,1.28V101.3a3.7,3.7,0,0,0,3.7,3.7H88a3.71,3.71,0,0,0,3.71-3.7V91h0a8.34,8.34,0,0,0-2-5.22l-3.46-4.17Z"/><path class="cls-4" d="M39.74,85.58H28.38a1,1,0,1,1,0-2H39.74a1,1,0,0,1,0,2Z"/><path class="cls-4" d="M44.39,85.58h-1a1,1,0,0,1,0-2h1a1,1,0,0,1,0,2Z"/><path class="cls-5" d="M86.67,80.59H26.49L32,64.51a6.29,6.29,0,0,1,5.94-4.25H75.23a6.28,6.28,0,0,1,5.94,4.25Z"/><path class="cls-4" d="M86.67,81.59H26.49a1,1,0,0,1-.95-1.32L31,64.19a7.26,7.26,0,0,1,6.88-4.93H75.23a7.28,7.28,0,0,1,6.89,4.92l5.49,16.09a1,1,0,0,1-.13.9A1,1,0,0,1,86.67,81.59Zm-58.79-2H85.27l-5-14.76a5.29,5.29,0,0,0-5-3.57H37.92a5.28,5.28,0,0,0-5,3.57Z"/><path class="cls-4" d="M87.2,81.59h-.53a1,1,0,1,1,0-2h.53a1.91,1.91,0,0,0,1.91-1.91V77a1,1,0,0,1,2,0v.68A3.91,3.91,0,0,1,87.2,81.59Z"/><path class="cls-4" d="M26.49,81.59H26a3.91,3.91,0,0,1-3.91-3.91V77a1,1,0,0,1,2,0v.68A1.91,1.91,0,0,0,26,79.59h.52a1,1,0,0,1,0,2Z"/><path class="cls-4" d="M30.33,100.89a5.32,5.32,0,0,1-4.19-8.6,5.23,5.23,0,0,1,3.54-2,21.85,21.85,0,0,1,4.68-.18c2.89.3,3.66,1.63,3.79,2.69h0c.37,3-4.24,7.7-7.15,8.06A4.91,4.91,0,0,1,30.33,100.89ZM33,92a26.26,26.26,0,0,0-3.06.22,3.33,3.33,0,0,0,.83,6.61c2-.25,5.61-4.17,5.4-5.83-.08-.66-1.29-.88-2-1A10.9,10.9,0,0,0,33,92Z"/><path class="cls-4" d="M82.83,100.89a5.16,5.16,0,0,1-.67,0c-2.9-.36-7.51-5.08-7.14-8.06h0c.13-1.06.9-2.39,3.79-2.69a21.88,21.88,0,0,1,4.68.18,5.33,5.33,0,0,1-.66,10.62ZM77,93c-.2,1.66,3.44,5.58,5.41,5.83a3.33,3.33,0,0,0,.83-6.61A20.57,20.57,0,0,0,79,92.08c-.71.07-1.92.29-2,1Z"/><path class="cls-5" d="M37.16,92.91c-.3-2.37-5-2-7.36-1.65a4.33,4.33,0,0,0,1.08,8.59C33.25,99.55,37.45,95.28,37.16,92.91Z"/><path class="cls-5" d="M76,92.91c.3-2.37,5-2,7.35-1.65a4.33,4.33,0,1,1-1.07,8.59C79.92,99.55,75.72,95.28,76,92.91Z"/><path class="cls-4" d="M30.33,100.89a5.32,5.32,0,0,1-4.19-8.6,5.23,5.23,0,0,1,3.54-2,21.85,21.85,0,0,1,4.68-.18c2.89.3,3.66,1.63,3.79,2.69h0c.37,3-4.24,7.7-7.15,8.06A4.91,4.91,0,0,1,30.33,100.89ZM33,92a26.26,26.26,0,0,0-3.06.22,3.33,3.33,0,0,0,.83,6.61c2-.25,5.61-4.17,5.4-5.83-.08-.66-1.29-.88-2-1A10.9,10.9,0,0,0,33,92Z"/><path class="cls-4" d="M82.83,100.89a5.16,5.16,0,0,1-.67,0c-2.9-.36-7.51-5.08-7.14-8.06h0c.13-1.06.9-2.39,3.79-2.69a21.88,21.88,0,0,1,4.68.18,5.33,5.33,0,0,1-.66,10.62ZM77,93c-.2,1.66,3.44,5.58,5.41,5.83a3.33,3.33,0,0,0,.83-6.61A20.57,20.57,0,0,0,79,92.08c-.71.07-1.92.29-2,1Z"/><path class="cls-4" d="M61.92,92.5H51.25a1,1,0,0,1,0-2H61.92a1,1,0,1,1,0,2Z"/><path class="cls-4" d="M69.75,96.46H43.42a1,1,0,0,1,0-2H69.75a1,1,0,0,1,0,2Z"/><path class="cls-4" d="M61.92,100.41H51.25a1,1,0,0,1,0-2H61.92a1,1,0,0,1,0,2Z"/><path class="cls-4" d="M68.51,61.27H44.65a1,1,0,0,1-1-1.31l2.77-8.73a4.42,4.42,0,0,1,4.24-3.1H62.46a4.42,4.42,0,0,1,4.23,3.1L69.46,60a1,1,0,0,1-.95,1.31Zm-22.5-2H67.14l-2.36-7.44h0a2.42,2.42,0,0,0-2.32-1.7H50.7a2.43,2.43,0,0,0-2.33,1.7Z"/><path class="cls-4" d="M62,55.7H51.21a1,1,0,1,1,0-2H62a1,1,0,0,1,0,2Z"/><rect class="cls-5" x="82.59" y="15" width="31.84" height="37.97" rx="4.37"/><polyline class="cls-5" points="88.27 25.92 89.73 27.38 93.18 23.93"/><line class="cls-5" x1="98.26" y1="25.66" x2="108.76" y2="25.66"/><polyline class="cls-5" points="88.27 34.25 89.73 35.71 93.18 32.26"/><line class="cls-5" x1="98.26" y1="33.99" x2="108.76" y2="33.99"/><polyline class="cls-5" points="88.27 42.58 89.73 44.04 93.18 40.59"/><line class="cls-5" x1="98.26" y1="42.32" x2="108.76" y2="42.32"/><path class="cls-4" d="M110.06,54H87a5.38,5.38,0,0,1-5.37-5.37V19.37A5.38,5.38,0,0,1,87,14h23.1a5.38,5.38,0,0,1,5.37,5.37V48.6A5.38,5.38,0,0,1,110.06,54ZM87,16a3.37,3.37,0,0,0-3.37,3.37V48.6A3.37,3.37,0,0,0,87,52h23.1a3.37,3.37,0,0,0,3.37-3.37V19.37A3.37,3.37,0,0,0,110.06,16Z"/><path class="cls-4" d="M89.73,28.38a1,1,0,0,1-.71-.29l-1.46-1.47A1,1,0,1,1,89,25.21l.76.76,2.75-2.75a1,1,0,0,1,1.41,0,1,1,0,0,1,0,1.42l-3.45,3.45A1,1,0,0,1,89.73,28.38Z"/><path class="cls-4" d="M108.76,26.66H98.26a1,1,0,0,1,0-2h10.5a1,1,0,1,1,0,2Z"/><path class="cls-4" d="M89.73,36.71a1,1,0,0,1-.71-.29L87.56,35a1,1,0,0,1,0-1.42,1,1,0,0,1,1.41,0l.76.76,2.75-2.75a1,1,0,0,1,1.41,0,1,1,0,0,1,0,1.42l-3.45,3.45A1,1,0,0,1,89.73,36.71Z"/><path class="cls-4" d="M108.76,35H98.26a1,1,0,0,1,0-2h10.5a1,1,0,0,1,0,2Z"/><path class="cls-4" d="M89.73,45a1,1,0,0,1-.71-.29l-1.46-1.46a1,1,0,0,1,0-1.42,1,1,0,0,1,1.41,0l.76.76,2.75-2.75a1,1,0,0,1,1.41,0,1,1,0,0,1,0,1.42l-3.45,3.45A1,1,0,0,1,89.73,45Z"/><path class="cls-4" d="M108.76,43.32H98.26a1,1,0,0,1,0-2h10.5a1,1,0,0,1,0,2Z"/><path class="cls-3" d="M67.25,20.56V33.29a4,4,0,0,1-1.41,3.06L59.19,42A4,4,0,0,1,54,42l-6.64-5.68a4,4,0,0,1-1.41-3.06V20.56a4,4,0,0,1,2.26-3.62,19.18,19.18,0,0,1,16.82,0A4,4,0,0,1,67.25,20.56Z"/><path class="cls-4" d="M56.58,44a5.08,5.08,0,0,1-3.27-1.21l-6.64-5.67a5.05,5.05,0,0,1-1.77-3.83V20.56A5,5,0,0,1,47.75,16a20.26,20.26,0,0,1,17.66,0,5,5,0,0,1,2.84,4.53V33.29a5,5,0,0,1-1.76,3.83l-6.65,5.67A5,5,0,0,1,56.58,44Zm0-28a18.89,18.89,0,0,0-8,1.86,3,3,0,0,0-1.69,2.71V33.29A3,3,0,0,0,48,35.59l6.64,5.68a3,3,0,0,0,3.93,0l6.65-5.68a3,3,0,0,0,1.06-2.3V20.56a3,3,0,0,0-1.68-2.71A18.92,18.92,0,0,0,56.58,16Z"/><path class="cls-4" d="M55,31.8a1,1,0,0,1-.71-.29L51.81,29a1,1,0,0,1,0-1.41,1,1,0,0,1,1.42,0l1.8,1.8,5.82-5.82a1,1,0,0,1,1.42,0,1,1,0,0,1,0,1.41l-6.53,6.54A1,1,0,0,1,55,31.8Z"/><path class="cls-2" d="M24.34,76c0,1.83-3.61,1.95-5.45,1.95a3.33,3.33,0,0,1,0-6.65C20.73,71.31,24.34,74.17,24.34,76Z"/><path class="cls-2" d="M88.82,76c0,1.83,3.62,1.95,5.45,1.95a3.33,3.33,0,1,0,0-6.65C92.44,71.31,88.82,74.17,88.82,76Z"/><path class="cls-4" d="M18.89,79a4.33,4.33,0,0,1,0-8.65c2.34,0,6.45,3.29,6.45,5.7C25.34,79,20.49,79,18.89,79Zm0-6.65a2.33,2.33,0,0,0,0,4.65c4.4,0,4.45-.94,4.45-.95C23.34,74.83,20.31,72.31,18.89,72.31Z"/><path class="cls-4" d="M94.27,79c-1.59,0-6.45,0-6.45-2.95,0-2.41,4.12-5.7,6.45-5.7a4.33,4.33,0,1,1,0,8.65Zm0-6.65c-1.41,0-4.45,2.52-4.45,3.7,0,0,.05.95,4.45.95a2.33,2.33,0,1,0,0-4.65Z"/><path class="cls-4" d="M114.66,116H15.34a1,1,0,0,1,0-2h99.32a1,1,0,0,1,0,2Z"/></g></g></svg>