<svg xmlns="http://www.w3.org/2000/svg" viewBox="0 0 130 130"><defs><style>.cls-1{fill:#eef5f7;}.cls-2{fill:#4e7ff7;}.cls-3{fill:#fff;}.cls-4{fill:#262626;}.cls-5{fill:#8fb9f5;}</style></defs><g id="Layer_2" data-name="Layer 2"><g id="Layer_1-2" data-name="Layer 1"><path class="cls-1" d="M130,65A65,65,0,1,1,65,0,65,65,0,0,1,130,65Z"/><path class="cls-2" d="M115,92.76v4.17a3.66,3.66,0,0,1-3.66,3.66H35.73L27.58,99.2,16.49,97.31A1.79,1.79,0,0,1,15,95.55V92.78A1.79,1.79,0,0,1,16.79,91a1.78,1.78,0,0,0,1.78-1.78V84.62a5.25,5.25,0,0,1,5.24-5.24h4.61L41.94,68.8A13.12,13.12,0,0,1,47,66.35a50.33,50.33,0,0,1,21.72-.15,12.76,12.76,0,0,1,6.63,3.71L85.73,80.64l21.1,2.79A9.41,9.41,0,0,1,115,92.76Z"/><path class="cls-3" d="M85.73,80.64H41.28l-7.37-5.56,8-6.28A13.12,13.12,0,0,1,47,66.35a50.33,50.33,0,0,1,21.72-.15,12.76,12.76,0,0,1,6.63,3.71Z"/><path class="cls-4" d="M111.34,101.59H35.73l-.17,0L16.32,98.29A2.78,2.78,0,0,1,14,95.55V92.78A2.79,2.79,0,0,1,16.79,90a.78.78,0,0,0,.78-.78V84.62a6.25,6.25,0,0,1,6.24-6.24h4.26L41.33,68a14.21,14.21,0,0,1,5.48-2.63A51.48,51.48,0,0,1,69,65.22a13.67,13.67,0,0,1,7.15,4L86.21,79.7,107,82.44a10.45,10.45,0,0,1,9,10.32v4.17A4.66,4.66,0,0,1,111.34,101.59Zm-75.52-2h75.52A2.66,2.66,0,0,0,114,96.93V92.76a8.43,8.43,0,0,0-7.3-8.33l-21.1-2.8a1,1,0,0,1-.59-.3L74.67,70.6a11.72,11.72,0,0,0-6.11-3.42,49.72,49.72,0,0,0-21.29.14,12.26,12.26,0,0,0-4.71,2.27L29,80.17a1,1,0,0,1-.61.21H23.81a4.24,4.24,0,0,0-4.24,4.24v4.59A2.79,2.79,0,0,1,16.79,92a.79.79,0,0,0-.79.79v2.77a.78.78,0,0,0,.65.77Z"/><path class="cls-4" d="M84.67,97.59H82.2a1,1,0,0,1,0-2h2.47a1,1,0,0,1,0,2Z"/><path class="cls-4" d="M78,97.59H58.82a1,1,0,1,1,0-2H78a1,1,0,1,1,0,2Z"/><path class="cls-5" d="M48.53,100.59A8.51,8.51,0,1,1,40,92.08,8.5,8.5,0,0,1,48.53,100.59Z"/><path class="cls-5" d="M107,100.59a8.51,8.51,0,1,1-8.51-8.51A8.5,8.5,0,0,1,107,100.59Z"/><path class="cls-4" d="M40,110.1a9.51,9.51,0,1,1,9.51-9.51A9.53,9.53,0,0,1,40,110.1Zm0-17a7.51,7.51,0,1,0,7.51,7.51A7.52,7.52,0,0,0,40,93.08Z"/><path class="cls-4" d="M98.46,110.1a9.51,9.51,0,1,1,9.51-9.51A9.53,9.53,0,0,1,98.46,110.1Zm0-17a7.51,7.51,0,1,0,7.51,7.51A7.52,7.52,0,0,0,98.46,93.08Z"/><path class="cls-4" d="M85.73,81.64H41.28a1,1,0,0,1-.6-.2l-7.37-5.56a1,1,0,0,1,1.2-1.6l7.11,5.36H85.73a1,1,0,0,1,0,2Z"/><path class="cls-4" d="M57.43,81.64a1,1,0,0,1-1-1V65.09a1,1,0,0,1,2,0V80.64A1,1,0,0,1,57.43,81.64Z"/><path class="cls-4" d="M68.82,88.23h-2.7a1,1,0,0,1,0-2h2.7a1,1,0,0,1,0,2Z"/><path class="cls-5" d="M112.34,40.46V58.6a5.24,5.24,0,0,1-1.84,4L101.86,70a5.24,5.24,0,0,1-6.8,0l-8.64-7.37a5.26,5.26,0,0,1-1.83-4V40.46a5.17,5.17,0,0,1,2.94-4.71,25,25,0,0,1,21.87,0A5.17,5.17,0,0,1,112.34,40.46Z"/><path class="cls-4" d="M98.46,72.23a6.2,6.2,0,0,1-4-1.51l-8.64-7.37a6.24,6.24,0,0,1-2.18-4.75V40.46a6.15,6.15,0,0,1,3.52-5.61,26,26,0,0,1,22.71,0,6.15,6.15,0,0,1,3.52,5.61V58.6a6.25,6.25,0,0,1-2.19,4.75l-8.64,7.37A6.23,6.23,0,0,1,98.46,72.23Zm0-38A24.87,24.87,0,0,0,88,36.66a4.15,4.15,0,0,0-2.36,3.8V58.6a4.25,4.25,0,0,0,1.48,3.23l8.64,7.37a4.22,4.22,0,0,0,5.5,0l8.64-7.37a4.22,4.22,0,0,0,1.49-3.23V40.46a4.16,4.16,0,0,0-2.36-3.8A24.92,24.92,0,0,0,98.46,34.25Z"/><path class="cls-3" d="M39.16,28.18a7.26,7.26,0,1,1-7.26-7.27A7.26,7.26,0,0,1,39.16,28.18Z"/><path class="cls-3" d="M39.16,49.34a7.26,7.26,0,1,1-7.26-7.27A7.26,7.26,0,0,1,39.16,49.34Z"/><polyline class="cls-5" points="29.71 49.7 30.93 50.92 34.09 47.76"/><line class="cls-5" x1="46.08" y1="46.04" x2="60.45" y2="46.04"/><line class="cls-5" x1="46.08" y1="52.64" x2="66.12" y2="52.64"/><path class="cls-4" d="M31.9,36.44a8.27,8.27,0,1,1,8.26-8.26A8.26,8.26,0,0,1,31.9,36.44Zm0-14.53a6.27,6.27,0,1,0,6.26,6.27A6.27,6.27,0,0,0,31.9,21.91Z"/><path class="cls-4" d="M30.93,30.75h0a1,1,0,0,1-.71-.29L29,29.25a1,1,0,0,1,0-1.42,1,1,0,0,1,1.41,0l.51.51,2.45-2.45a1,1,0,1,1,1.41,1.41l-3.16,3.16A1,1,0,0,1,30.93,30.75Z"/><path class="cls-4" d="M60.45,25.87H46.08a1,1,0,0,1,0-2H60.45a1,1,0,0,1,0,2Z"/><path class="cls-4" d="M66.12,32.48h-20a1,1,0,0,1,0-2h20a1,1,0,0,1,0,2Z"/><path class="cls-4" d="M31.9,57.61a8.27,8.27,0,1,1,8.26-8.27A8.27,8.27,0,0,1,31.9,57.61Zm0-14.54a6.27,6.27,0,1,0,6.26,6.27A6.28,6.28,0,0,0,31.9,43.07Z"/><path class="cls-4" d="M30.93,51.92h0a1,1,0,0,1-.71-.29L29,50.41A1,1,0,0,1,30.42,49l.51.5,2.45-2.45a1,1,0,0,1,1.41,0,1,1,0,0,1,0,1.42l-3.16,3.16A1,1,0,0,1,30.93,51.92Z"/><path class="cls-4" d="M60.45,47H46.08a1,1,0,0,1,0-2H60.45a1,1,0,0,1,0,2Z"/><path class="cls-4" d="M66.12,53.64h-20a1,1,0,0,1,0-2h20a1,1,0,0,1,0,2Z"/><path class="cls-4" d="M95.85,57.47a1,1,0,0,1-.71-.29l-3.26-3.27a1,1,0,0,1,1.41-1.41l2.56,2.56,7.78-7.79a1,1,0,1,1,1.42,1.42l-8.49,8.49A1,1,0,0,1,95.85,57.47Z"/><path class="cls-4" d="M88.59,55.16a1,1,0,0,1-1-1V45.58a1,1,0,0,1,2,0v8.58A1,1,0,0,1,88.59,55.16Z"/><path class="cls-4" d="M88.59,43.51a1,1,0,0,1-1-1v-1a1,1,0,0,1,2,0v1A1,1,0,0,1,88.59,43.51Z"/><path class="cls-4" d="M114.66,110.1H15.34a1,1,0,0,1,0-2h99.32a1,1,0,0,1,0,2Z"/></g></g></svg>