<?xml version="1.0" encoding="utf-8"?>
<!-- Generator: Adobe Illustrator 25.0.0, SVG Export Plug-In . SVG Version: 6.00 Build 0)  -->
<svg version="1.1" xmlns="http://www.w3.org/2000/svg" xmlns:xlink="http://www.w3.org/1999/xlink" x="0px" y="0px"
	 viewBox="0 0 350.8 268.9" style="enable-background:new 0 0 350.8 268.9;" xml:space="preserve">
<style type="text/css">
	.st0{opacity:0.4;fill:#DFE3E6;}
	.st1{fill:#21437F;}
	.st2{fill:#8CB8FF;}
	.st3{fill:#4780FF;}
	.st4{fill:#41C9A7;}
	.st5{fill:none;stroke:#21437F;stroke-width:2;stroke-linecap:round;stroke-linejoin:round;stroke-miterlimit:10;}
	.st6{fill:none;stroke:#152E4D;stroke-linecap:round;stroke-linejoin:round;stroke-miterlimit:10;}
	.st7{fill:none;stroke:#21437F;stroke-width:2;stroke-miterlimit:10;}
	.st8{fill:#FFFFFF;}
	.st9{opacity:0.22;fill:#4780FF;}
	.st10{opacity:0.15;fill:#21437F;}
	.st11{opacity:0.4;fill:#FFFFFF;}
	.st12{opacity:0.15;}
	.st13{fill:none;stroke:#21437F;stroke-width:2;stroke-linecap:round;stroke-miterlimit:10;}
	.st14{opacity:0.15;fill:#A9ABBA;}
	.st15{fill:#FBFEFE;}
	.st16{fill:#38A384;}
	.st17{fill:#406FF9;}
	.st18{fill:#ECA881;}
	.st19{fill:#F6B18A;}
	.st20{fill:#282C52;}
	.st21{fill:#E4854D;}
	.st22{fill:none;stroke:#FFFFFF;stroke-width:2;stroke-linecap:round;stroke-linejoin:round;stroke-miterlimit:10;}
	.st23{fill:#21437F;stroke:#21437F;stroke-width:0.5;stroke-miterlimit:10;}
	.st24{fill:none;stroke:#21437F;stroke-width:1.5;stroke-linecap:round;stroke-linejoin:round;stroke-miterlimit:10;}
	.st25{opacity:0.18;fill:#4780FF;}
</style>
<g id="Layer_2">
</g>
<g id="Layer_1">
	<path class="st0" d="M46.9,145.9c-0.6-30,16.4-51.1,36.6-54.3s41.1-0.8,55.5-12.4s34.4-40.3,57.2-40.8
		C252,37.2,302.8,121.2,303.9,171s-33.4,65-54.4,65.5s-44.9-26.6-71.2-26c-26.3,0.6-34.6,13.9-65,14.6
		C82.8,225.7,47.9,188.2,46.9,145.9z"/>
	<line class="st7" x1="290" y1="217.4" x2="294.9" y2="217.4"/>
	<polyline class="st7" points="64.8,217.4 80.3,217.4 142,217.4 209,217.4 218.3,217.4 260.6,217.4 272.5,217.4 283.4,217.4 	"/>
	<g>
	</g>
	<g>
		<g>
			<path class="st8" d="M167.9,113.1c0,0.2,0.1,0.4,0.1,0.6c0.5,3.8-1.1,7.2-3.8,7.7c-0.8,0.1-1.6,0-2.3-0.3
				c1.5-1.5,2.1-4.3,1.6-7.3c-0.6-3-2.2-5.3-4.1-6.2c0.6-0.6,1.3-1,2-1.2c2.4-0.5,4.9,1.7,6,5C167.6,111.8,167.8,112.4,167.9,113.1z
				"/>
			<path class="st8" d="M168,113.7c0.9,5.3-0.8,10.1-3.9,12.1c-0.5,0.2-0.9,0.5-1.4,0.7c-0.2,0.1-0.4,0.1-0.7,0.2
				c-4.5,0.8-9.1-3.8-10.4-10.3s1.4-12.5,5.9-13.4c3.5-0.7,7.1,2,9.1,6.3c0.3,0.6,0.6,1.3,0.8,2.1c-1.1-3.3-3.6-5.4-6-5
				c-0.8,0.1-1.5,0.5-2,1.2c-1.5,1.5-2.2,4.3-1.6,7.3c0.6,3,2.2,5.3,4.1,6.2c0.8,0.4,1.5,0.5,2.3,0.3
				C166.9,120.9,168.4,117.5,168,113.7z"/>
			<path class="st2" d="M162,126.6c0.2,0,0.4-0.1,0.7-0.2c-3.4,1.6-6.9,2.9-10.5,4l-0.1-0.2c-2.8-1.3-5.5-3-7.2-5.5
				c-1-1.5-1.7-3.3-2.2-5.1c-0.6-2-0.9-4-0.8-6c0.2-3.1,1.9-6.2,4.3-8.1l0,0c3.7-1.1,7.5-1.9,11.3-2.5c-4.5,0.8-7.2,6.8-5.9,13.4
				S157.5,127.4,162,126.6z"/>
			<path class="st3" d="M139.9,107.6c2.1-0.8,4.2-1.5,6.3-2.2l0,0c-2.5,1.9-4.1,5-4.3,8.1c-0.2,2,0.2,4.1,0.8,6
				c0.5,1.8,1.2,3.5,2.2,5.1c1.7,2.5,4.4,4.3,7.2,5.5l0.1,0.2c-7.9,2.5-16.2,3.7-24.6,3.9c-1.8,0-3.6,0-5.3-0.3
				c-0.8-0.1-1.5-0.3-2.2-0.6c-2.4-0.9-4.9-2.2-5.4-4.6c-1-2.3,0.4-4.8,1.8-6.9c1.4-2.1,3.5-3.7,5.6-5.1c0.7-0.5,1.5-1,2.3-1.5
				C129.3,112.3,134.5,109.7,139.9,107.6z"/>
			<g>
				<path class="st5" d="M167.9,112.9c0.8,4.2-0.8,7.9-3.6,8.5c-0.8,0.1-1.6,0-2.3-0.3c-1.9-0.9-3.6-3.2-4.1-6.2
					c-0.6-3,0.1-5.8,1.6-7.3c0.6-0.6,1.3-1,2-1.2C164.2,105.8,167.1,108.7,167.9,112.9z"/>
				<path class="st1" d="M163.5,113.7c0.6,3-0.1,5.8-1.6,7.3c-1.9-0.9-3.6-3.2-4.1-6.2c-0.6-3,0.1-5.8,1.6-7.3
					C161.3,108.4,162.9,110.7,163.5,113.7z"/>
				
					<ellipse transform="matrix(0.9828 -0.1848 0.1848 0.9828 -18.4513 31.5013)" class="st5" cx="159.8" cy="114.7" rx="8.3" ry="12"/>
				<path class="st24" d="M146.2,105.5c-2.5,2-4.1,5-4.3,8.1c-0.2,2,0.2,4.1,0.8,6c0.5,1.8,1.2,3.5,2.2,5.1c1.7,2.5,4.4,4.3,7.2,5.5
					"/>
				<path class="st5" d="M157.5,102.9c-12.7,1.9-24.8,6.8-35.5,13.9c-2.1,1.4-4.2,3-5.6,5.1c-1.4,2.1-2.8,4.6-1.8,6.9"/>
				<path class="st5" d="M164.6,125.4c-11.5,5.7-24.2,8.6-37,8.9c-2.5,0.1-5.2,0-7.5-0.9c-2.4-0.9-4.9-2.2-5.4-4.6"/>
			</g>
		</g>
		<path class="st3" d="M301.2,99.9c1.7,0.4,3.1,1.9,3.4,3.6c0.3,1.7-0.6,3.6-2.2,4.4l-0.3,0.1l-12.2,5.1l0,0c-2.5-1.1-4.6-3.4-5.4-6
			c-0.9-3-0.2-6.5,1.8-8.9L301.2,99.9z"/>
		<path class="st3" d="M71.2,103.1c3.6,0.1,7,1.6,9.7,4l-11.8,4.1l-0.1,0l-43.1,5.5c1.9-2.3,4.2-4.1,6.8-5.5c1.8-1,3.8-1.7,5.8-2.1
			l18-3.4l13.7-2.6C70.5,103.2,70.8,103.1,71.2,103.1z"/>
		<path class="st3" d="M124.9,90.4L94,103l-7.1-4l26.1-8.6C117,89.7,120.9,89.6,124.9,90.4z"/>
		<path class="st8" d="M80.9,107.1L80.9,107.1c-2.7-2.4-6.1-3.8-9.7-4c-0.4,0-0.8,0-1.1,0.1l-13.7,2.6l-0.1-0.8l8.1-7.1
			c4.7-4.1,11.5-4.9,17-1.8l5.5,3l0,0l7.1,4l22.4,12.4c-5.4,2.1-10.6,4.7-15.5,7.8l0,0L80.9,107.1z"/>
		<path class="st8" d="M80.9,107.1l19.9,16.1l0,0c-0.8,0.5-1.5,1-2.3,1.5c-2.1,1.4-4.2,3-5.6,5.1c-1.4,2.1-2.8,4.6-1.8,6.9l-22.2-25
			l0-0.4l0.1,0L80.9,107.1L80.9,107.1z"/>
		<path class="st3" d="M201.6,138c0.4,0.3,0.5,0.7,0.4,1.2c-0.1,0.9-0.9,1.5-1.5,2.1c-5.1,4.6-11.2,9.1-17.9,10.4L74,167.2
			c-2.9,0.3-5.9,0.8-8.8,0.7c-2.9-0.2-5.9-0.8-8.4-2.3c-1.7-1-3.1-2.3-4.5-3.7l-10.6-11l5.6-1c1.9-0.3,3.5,1.5,4.9,2.7
			c1.4,1.2,2.8,2.6,4.2,3.8c2.3,2,4.9,3.7,7.8,4.7s6.1,1.4,9.1,0.6l62.8-14.5c0,0,0,0,0,0l39-9c4.7-1.1,9-2.2,13.6-2.3
			c3.7,0,7.3,0.7,11,1.5C200.4,137.4,201,137.6,201.6,138z"/>
		<path class="st8" d="M289.9,113.2l-73.7,31c-5.3,1.8-9.1,3.4-12.7,4.1l-20.9,3.4l0,0c6.7-1.3,12.8-5.8,17.9-10.4
			c0.6-0.5,1.4-1.2,1.5-2.1c0.1-0.4-0.1-0.9-0.4-1.2c-0.5-0.4-1.2-0.6-1.8-0.7c-3.6-0.8-7.3-1.5-11-1.5c-4.6,0-8.9,1.2-13.6,2.3
			l-39,9l0,0c-13.3,1.2-24.8-0.6-37.4-5.2c1.7,0.3,3.5,0.4,5.3,0.3c8.3-0.2,16.6-1.5,24.6-3.9c3.6-1.1,7.1-2.5,10.5-4
			c0.5-0.2,1-0.4,1.4-0.7c3.1-2,4.8-6.8,3.9-12.1c0-0.2,0-0.3-0.1-0.5l-0.1-0.3c-0.1-0.6-0.3-1.1-0.4-1.6c-0.2-0.7-0.5-1.4-0.8-2.1
			l1-0.4l101.9-25.9c4.3-1.1,8.9-0.9,13.1,0.6l15.8,5.6l11.5,1.3c-2,2.4-2.7,5.9-1.8,8.9C285.4,109.8,287.4,112,289.9,113.2z"/>
		<path class="st1" d="M135.9,115.3c1.9,0.9,3.6,3.3,4.1,6.2c0.6,3-0.1,5.8-1.6,7.3c-1.9-0.9-3.6-3.2-4.1-6.2
			C133.7,119.7,134.4,116.9,135.9,115.3z"/>
		<path class="st5" d="M302.4,107.9c1.5-0.9,2.4-2.7,2.2-4.4s-1.7-3.2-3.4-3.6L274.9,97l-15.8-5.6c-4.1-1.6-8.8-1.7-13.1-0.6
			l-101.9,25.9"/>
		<line class="st5" x1="100.9" y1="123.2" x2="80.8" y2="107"/>
		<path class="st5" d="M116.4,115.5l-35-19.4c-5.5-3-12.3-2.3-17,1.8l-8.1,7.1"/>
		<path class="st5" d="M25.9,116.8l43.2-5.5l11.8-4.1c-2.6-2.5-6.1-3.9-9.7-4c-0.4,0-0.8,0-1.1,0.1l-31.6,5.9c-2,0.4-4,1.1-5.8,2.1
			C30.1,112.7,27.8,114.4,25.9,116.8z"/>
		<path class="st5" d="M94,103l30.9-12.6c-4-0.8-7.9-0.7-11.9,0l-26.2,8.6"/>
		<path class="st5" d="M286.4,98.3c-2,2.4-2.7,5.9-1.8,8.9c0.8,2.7,2.8,4.9,5.4,6"/>
		<path class="st1" d="M261.7,92.7l-8.4,2.5c-0.9,0.3-1.1,1.3-0.4,1.9l4.2,3.5c1.1,0.9,2.6,1.3,4,0.9l14.4-3.2l2.2-0.4
			c-0.8,0-1.5-0.2-2.3-0.4c-1-0.2-2-0.5-2.9-0.9C269,95.4,265.1,94,261.7,92.7z"/>
		<path class="st1" d="M252.1,103.9l1.2-0.2c0.6-0.1,0.9-0.9,0.5-1.4l-3.6-4.9c-0.2-0.3-0.5-0.4-0.9-0.3c-0.9,0.2-1.9,0.4-2.7,0.5
			c-0.5,0.1-0.8,0.5-0.7,1c0.3,1.4,0.7,3.5,1,5.4c0.1,0.5,0.5,0.8,1,0.7C249.1,104.5,250.3,104.3,252.1,103.9z"/>
		<path class="st1" d="M243.7,105.4l-2.8,0.5c-0.5,0.1-1.1-0.3-1.2-0.8l-0.9-5c-0.1-0.5,0.3-1.1,0.8-1.2l2.8-0.5
			c0.5-0.1,1.1,0.3,1.2,0.8l0.9,5C244.6,104.8,244.3,105.3,243.7,105.4z"/>
		<path class="st1" d="M169.1,125.3L169.1,125.3c-1,0.1-1.9-0.7-2-1.7l-0.3-3.5c-0.1-1,0.7-1.9,1.7-2l0,0c1-0.1,1.9,0.7,2,1.7
			l0.3,3.5C170.9,124.3,170.1,125.2,169.1,125.3z"/>
		<path class="st1" d="M178.1,123L178.1,123c-1,0.1-1.9-0.7-2-1.7l-0.3-3.5c-0.1-1,0.7-1.9,1.7-2l0,0c1-0.1,1.9,0.7,2,1.7l0.3,3.5
			C179.9,122,179.1,122.9,178.1,123z"/>
		<path class="st1" d="M187.1,120.7L187.1,120.7c-1,0.1-1.9-0.7-2-1.7l-0.3-3.5c-0.1-1,0.7-1.9,1.7-2l0,0c1-0.1,1.9,0.7,2,1.7
			l0.3,3.5C188.9,119.7,188.1,120.6,187.1,120.7z"/>
		<path class="st1" d="M196.1,118.4L196.1,118.4c-1,0.1-1.9-0.7-2-1.7l-0.3-3.5c-0.1-1,0.7-1.9,1.7-2l0,0c1-0.1,1.9,0.7,2,1.7
			l0.3,3.5C197.9,117.4,197.1,118.3,196.1,118.4z"/>
		<path class="st1" d="M205.1,116.1L205.1,116.1c-1,0.1-1.9-0.7-2-1.7l-0.3-3.5c-0.1-1,0.7-1.9,1.7-2h0c1-0.1,1.9,0.7,2,1.7l0.3,3.5
			C206.9,115.1,206.1,116,205.1,116.1z"/>
		<path class="st1" d="M214.1,113.8L214.1,113.8c-1,0.1-1.9-0.7-2-1.7l-0.3-3.5c-0.1-1,0.7-1.9,1.7-2l0,0c1-0.1,1.9,0.7,2,1.7
			l0.3,3.5C215.9,112.8,215.2,113.7,214.1,113.8z"/>
		<g>
			<path class="st9" d="M81.5,107.6c-0.7,2.4-0.1,5.1,1.1,7.3s3,4.1,4.7,5.9c2.3,2.4,4.5,4.8,6.8,7.1c-1.6,2.6-3.3,5.1-4.8,7.6
				L69,111.9c0,0-0.1,0-0.1-0.1l11.6-4.1"/>
			<path class="st9" d="M158.9,137c6.4,2.5,13.6,2.3,20.2,0.7c-19.2,4.6-38.7,9.3-58.5,9c-5.8-0.1-11.8-0.7-16.7-3.7
				c7.1-1,14.2-2.2,21.3-3.7c4.8-1,9.7-2.1,13.8-4.9c1.9-1.3,3.5-3,4.7-4.9c0.6-1,1.1-2,1.4-3.1c0.3-1.1,0.2-2.2,0.5-3.2
				c0.7,0.5,1,2.4,1.4,3.2c0.6,1.2,1.3,2.3,2.1,3.3c1.6,2.1,3.6,3.8,5.8,5.2C156.2,135.8,157.6,136.5,158.9,137z"/>
			<path class="st9" d="M287,114.1c-2.5-0.7-4.7-2.6-5.5-5l-92.7,26.3c3.4-0.6,7,0.7,10.4,1.4c0.8,0.2,1.8,0.4,2.3,1
				c0.6,0.7,0.5,2.1-0.4,2.3l-10.7,9.6c0,0.1,0,0.2,0.1,0.3l1.7,0.7c0.3-0.1,0.6-0.1,0.9-0.2l17.4-3.9c0.2,0,0.5-0.1,0.7-0.1
				L287,114.1z"/>
			<path class="st11" d="M178.8,137.1c2.1,0,3.7,2.1,3.8,4.1s-1.1,4-2.7,5.3c-1.6,1.3-3.5,2.1-5.5,2.9c-4,1.6-7.8,4.2-12.1,5
				l24.8-3.2c5.6-1.1,10-5.6,13.7-9.9c0.8-0.9,1.5-2.1,0.8-3.1l-13.7-3.5c-0.2,0-0.4,0.1-0.6,0.1L178.8,137.1z"/>
		</g>
		<path class="st5" d="M91.2,136.7l-22.2-25"/>
		<g>
			<path class="st8" d="M144.4,120.9c0,0.2,0.1,0.4,0.1,0.6c0.5,3.8-1.1,7.2-3.8,7.7c-0.8,0.1-1.6,0-2.3-0.3
				c1.5-1.5,2.1-4.3,1.6-7.3c-0.6-3-2.2-5.3-4.1-6.2c0.6-0.6,1.3-1,2-1.2c2.4-0.5,4.9,1.7,6,5C144.1,119.7,144.3,120.3,144.4,120.9z
				"/>
			<path class="st8" d="M144.5,121.5c0.9,5.3-0.8,10.1-3.9,12.1c-0.5,0.2-0.9,0.5-1.4,0.7c-0.2,0.1-0.4,0.1-0.7,0.2
				c-4.5,0.8-9.1-3.8-10.4-10.3c-1.2-6.5,1.4-12.5,5.9-13.4c3.5-0.7,7.1,2,9.1,6.3c0.3,0.6,0.6,1.3,0.8,2.1c-1.1-3.3-3.6-5.4-6-5
				c-0.8,0.1-1.5,0.5-2,1.2c-1.5,1.5-2.2,4.3-1.6,7.3c0.6,3,2.2,5.3,4.1,6.2c0.8,0.4,1.5,0.5,2.3,0.3
				C143.4,128.7,145,125.4,144.5,121.5z"/>
			<path class="st2" d="M138.5,134.4c0.2,0,0.4-0.1,0.7-0.2c-3.4,1.6-6.9,2.9-10.5,4l-0.1-0.2c-2.8-1.3-5.5-3-7.2-5.5
				c-1-1.5-1.7-3.3-2.2-5.1c-0.6-2-0.9-4-0.8-6c0.2-3.1,1.9-6.2,4.3-8.1l0,0c3.7-1.1,7.5-1.9,11.3-2.5c-4.5,0.8-7.2,6.8-5.9,13.4
				C129.4,130.7,134,135.3,138.5,134.4z"/>
			<path class="st3" d="M116.4,115.4c2.1-0.8,4.2-1.5,6.3-2.2l0,0c-2.5,1.9-4.1,5-4.3,8.1c-0.2,2,0.2,4.1,0.8,6
				c0.5,1.8,1.2,3.5,2.2,5.1c1.7,2.5,4.4,4.3,7.2,5.5l0.1,0.2c-7.9,2.5-16.2,3.7-24.6,3.9c-1.8,0-3.6,0-5.3-0.3
				c-0.8-0.1-1.5-0.3-2.2-0.6c-2.4-0.9-4.9-2.2-5.4-4.6c-1-2.3,0.4-4.8,1.8-6.9c1.4-2.1,3.5-3.7,5.6-5.1c0.7-0.5,1.5-1,2.3-1.5
				C105.8,120.1,111,117.5,116.4,115.4z"/>
			<g>
				<path class="st5" d="M144.4,120.8c0.8,4.2-0.8,7.9-3.6,8.5c-0.8,0.1-1.6,0-2.3-0.3c-1.9-0.9-3.6-3.2-4.1-6.2
					c-0.6-3,0.1-5.8,1.6-7.3c0.6-0.6,1.3-1,2-1.2C140.7,113.6,143.6,116.6,144.4,120.8z"/>
				<path class="st1" d="M140,121.6c0.6,3-0.1,5.8-1.6,7.3c-1.9-0.9-3.6-3.2-4.1-6.2c-0.6-3,0.1-5.8,1.6-7.3
					C137.8,116.2,139.4,118.6,140,121.6z"/>
				
					<ellipse transform="matrix(0.9828 -0.1848 0.1848 0.9828 -20.3097 27.2954)" class="st5" cx="136.3" cy="122.6" rx="8.3" ry="12"/>
				<path class="st24" d="M122.7,113.3c-2.5,2-4.1,5-4.3,8.1c-0.2,2,0.2,4.1,0.8,6c0.5,1.8,1.2,3.5,2.2,5.1c1.7,2.5,4.4,4.3,7.2,5.5
					"/>
				<path class="st5" d="M134.1,110.8c-12.7,1.9-24.8,6.8-35.5,13.9c-2.1,1.4-4.2,3-5.6,5.1c-1.4,2.1-2.8,4.6-1.8,6.9"/>
				<path class="st5" d="M141.1,133.3c-11.5,5.7-24.2,8.6-37,8.9c-2.5,0.1-5.2,0-7.5-0.9s-4.9-2.2-5.4-4.6"/>
			</g>
		</g>
		<path class="st5" d="M136.2,147.1c-13.3,1.3-24.8-0.6-37.4-5.2"/>
		<path class="st5" d="M302.1,108l-85.9,36.1c-5.3,1.8-9.1,3.4-12.7,4.1l-23,3.7"/>
		<path class="st5" d="M41.8,150.9l10.6,11c1.3,1.4,2.8,2.7,4.5,3.7c2.5,1.5,5.5,2.1,8.4,2.3c2.9,0.1,5.9-0.3,8.8-0.7l108.5-15.6
			c6.7-1.3,12.8-5.8,17.9-10.4c0.6-0.5,1.4-1.2,1.5-2.1c0.1-0.4-0.1-0.9-0.4-1.2c-0.5-0.4-1.2-0.6-1.8-0.7
			c-3.6-0.8-7.3-1.5-10.9-1.5c-4.6,0-8.9,1.2-13.6,2.3L73.4,161.6c-3,0.7-6.2,0.4-9.1-0.6s-5.5-2.7-7.8-4.7
			c-1.4-1.2-2.7-2.6-4.2-3.8c-1.5-1.2-3.1-3-4.9-2.7L41.8,150.9z"/>
	</g>
	<g>
		<rect x="107.9" y="173" class="st3" width="5.5" height="8.7"/>
		<polygon class="st3" points="101.8,195.1 101.8,203.7 96.2,203.7 96.2,195.1 100.5,195.1 		"/>
		<path class="st8" d="M134,196.5v19.1c0,0.8-0.7,1.5-1.5,1.5h-20.4c-0.8,0-1.5-0.7-1.5-1.5v-19.1c0-0.8,0.7-1.5,1.5-1.5h7.4v8.7
			h5.5v-8.7h7.4C133.3,195.1,134,195.7,134,196.5z"/>
		<polygon class="st3" points="125.1,195.1 125.1,203.7 119.5,203.7 119.5,195.1 120.8,195.1 		"/>
		<path class="st8" d="M122.3,174.5v19.1c0,0.8-0.7,1.5-1.5,1.5h-1.3h-7.4h-2.9h-7.4h-1.3c-0.8,0-1.5-0.7-1.5-1.5v-19.1
			c0-0.8,0.7-1.5,1.5-1.5h7.4v8.7h5.5V173h7.4C121.7,173,122.3,173.7,122.3,174.5z"/>
		<path class="st25" d="M134,196.5v19.1c0,0.8-0.7,1.5-1.5,1.5h-4c0.8,0,1.5-0.7,1.5-1.5v-19.1c0-0.8-0.7-1.5-1.5-1.5h4
			C133.3,195.1,134,195.7,134,196.5z"/>
		<path class="st25" d="M122.3,174.5v19.1c0,0.8-0.7,1.5-1.5,1.5h-4c0.8,0,1.5-0.7,1.5-1.5v-19.1c0-0.8-0.7-1.5-1.5-1.5h4
			C121.7,173,122.3,173.7,122.3,174.5z"/>
		<path class="st8" d="M110.7,196.5v19.1c0,0.8-0.7,1.5-1.5,1.5H88.8c-0.8,0-1.5-0.7-1.5-1.5v-19.1c0-0.8,0.7-1.5,1.5-1.5h7.4v8.7
			h5.5v-8.7h7.4C110,195.1,110.7,195.7,110.7,196.5z"/>
		<path class="st25" d="M110.7,196.5v19.1c0,0.8-0.7,1.5-1.5,1.5h-3.8c0.8,0,1.5-0.7,1.5-1.5v-19.1c0-0.8-0.7-1.5-1.5-1.5h3.8
			C110,195.1,110.7,195.7,110.7,196.5z"/>
		<g>
			<path class="st7" d="M109.2,195.1c0.8,0,1.5,0.7,1.5,1.5"/>
			<path class="st7" d="M110.7,215.7c0,0.8-0.7,1.5-1.5,1.5H88.8c-0.8,0-1.5-0.7-1.5-1.5v-19.1c0-0.8,0.7-1.5,1.5-1.5h7.4"/>
			<polyline class="st7" points="101.8,195.1 101.8,203.7 96.2,203.7 96.2,195.1 100.5,195.1 			"/>
			<path class="st7" d="M125.1,195.1h7.4c0.8,0,1.5,0.7,1.5,1.5v19.1c0,0.8-0.7,1.5-1.5,1.5h-20.4c-0.8,0-1.5-0.7-1.5-1.5v-19.1
				c0-0.8,0.7-1.5,1.5-1.5"/>
			<polyline class="st7" points="120.8,195.1 125.1,195.1 125.1,203.7 119.5,203.7 119.5,195.1 			"/>
			<path class="st7" d="M113.4,173h7.4c0.8,0,1.5,0.7,1.5,1.5v19.1c0,0.8-0.7,1.5-1.5,1.5h-1.3h-7.4h-2.9h-7.4h-1.3
				c-0.8,0-1.5-0.7-1.5-1.5v-19.1c0-0.8,0.7-1.5,1.5-1.5h7.4"/>
			<rect x="107.9" y="173" class="st7" width="5.5" height="8.7"/>
		</g>
	</g>
	<g>
		<g>
			<g class="st12">
				<g>
					<circle class="st1" cx="216.6" cy="166" r="41.2"/>
					<circle class="st1" cx="216.6" cy="166" r="41.2"/>
				</g>
			</g>
			<g>
				<circle class="st8" cx="222.1" cy="162.9" r="41.2"/>
				<circle class="st7" cx="222.1" cy="162.9" r="41.2"/>
			</g>
		</g>
		<g>
			<path class="st4" d="M220.6,136.8c6.8,4.6,15.6,6.1,23.5,4.2v26.2c0,2.6-0.4,5.2-1.4,7.6c-1.6,4-4.1,7.7-7.1,10.7
				c-4.3,4.2-9.5,7.3-15,9.7c-5.5-2.4-10.7-5.5-15-9.7c-3.1-3-5.6-6.7-7.1-10.7c-1-2.4-1.4-5-1.4-7.6V141
				C205,142.9,213.8,141.3,220.6,136.8z"/>
			<path class="st5" d="M220.6,136.8c6.8,4.6,15.6,6.1,23.5,4.2v26.2c0,2.6-0.4,5.2-1.4,7.6c-1.6,4-4.1,7.7-7.1,10.7
				c-4.3,4.2-9.5,7.3-15,9.7c-5.5-2.4-10.7-5.5-15-9.7c-3.1-3-5.6-6.7-7.1-10.7c-1-2.4-1.4-5-1.4-7.6V141
				C205,142.9,213.8,141.3,220.6,136.8z"/>
			<path class="st8" d="M220.6,142.8c5.4,3.6,12.3,4.8,18.7,3.3v20.8c0,2.1-0.3,4.1-1.1,6c-1.3,3.2-3.2,6.1-5.7,8.5
				c-3.4,3.3-7.6,5.8-11.9,7.7c-4.3-1.9-8.5-4.4-11.9-7.7c-2.4-2.4-4.4-5.3-5.7-8.5c-0.8-1.9-1.1-4-1.1-6v-20.8
				C208.3,147.7,215.2,146.4,220.6,142.8z"/>
		</g>
		<polyline class="st13" points="212,166.9 216.6,171.9 230.9,157.4 		"/>
	</g>
</g>
</svg>
