<?xml version="1.0" encoding="utf-8"?>
<!-- Generator: Adobe Illustrator 25.0.0, SVG Export Plug-In . SVG Version: 6.00 Build 0)  -->
<svg version="1.1" xmlns="http://www.w3.org/2000/svg" xmlns:xlink="http://www.w3.org/1999/xlink" x="0px" y="0px"
	 viewBox="0 0 350.8 268.9" style="enable-background:new 0 0 350.8 268.9;" xml:space="preserve">
<style type="text/css">
	.st0{fill:#21437F;}
	.st1{fill:#8CB8FF;}
	.st2{fill:#4780FF;}
	.st3{fill:#41C9A7;}
	.st4{fill:none;stroke:#21437F;stroke-width:2;stroke-linecap:round;stroke-linejoin:round;stroke-miterlimit:10;}
	.st5{fill:none;stroke:#152E4D;stroke-linecap:round;stroke-linejoin:round;stroke-miterlimit:10;}
	.st6{opacity:0.4;fill:#DFE3E6;}
	.st7{fill:none;stroke:#21437F;stroke-width:2;stroke-miterlimit:10;}
	.st8{fill:#FFFFFF;}
	.st9{opacity:0.22;fill:#4780FF;}
	.st10{opacity:0.15;fill:#21437F;}
	.st11{opacity:0.4;fill:#FFFFFF;}
	.st12{opacity:0.15;}
	.st13{fill:none;stroke:#21437F;stroke-width:2;stroke-linecap:round;stroke-miterlimit:10;}
	.st14{opacity:0.15;fill:#A9ABBA;}
	.st15{fill:#FBFEFE;}
	.st16{fill:#38A384;}
	.st17{fill:#406FF9;}
	.st18{fill:#ECA881;}
	.st19{fill:#F6B18A;}
	.st20{fill:#282C52;}
	.st21{fill:#E4854D;}
	.st22{fill:none;stroke:#FFFFFF;stroke-width:2;stroke-linecap:round;stroke-linejoin:round;stroke-miterlimit:10;}
	.st23{fill:#21437F;stroke:#21437F;stroke-width:0.5;stroke-miterlimit:10;}
</style>
<g id="Layer_2">
</g>
<g id="Layer_1">
	<g>
		<path class="st6" d="M46.9,145.9c-0.6-30,16.4-51.1,36.6-54.3s41.1-0.8,55.5-12.4s34.4-40.3,57.2-40.8
			C252,37.2,302.8,121.2,303.9,171s-33.4,65-54.4,65.5s-44.9-26.6-71.2-26c-26.3,0.6-34.6,13.9-65,14.6
			C82.8,225.7,47.9,188.2,46.9,145.9z"/>
		<rect x="148.9" y="212.4" class="st1" width="43.4" height="4.5"/>
		<g>
			<path class="st8" d="M105.7,125.3h-8.8c-1.5,0-2.7-1.2-2.7-2.7V79.1c0-1.5,1.2-2.7,2.7-2.7h8.8c1.5,0,2.7,1.2,2.7,2.7v43.4
				C108.5,124.1,107.2,125.3,105.7,125.3z"/>
			
				<rect x="107.6" y="85.1" transform="matrix(-1 -1.224647e-16 1.224647e-16 -1 223.613 173.4425)" class="st0" width="8.3" height="3.2"/>
			
				<rect x="107.6" y="112.8" transform="matrix(-1 -1.224647e-16 1.224647e-16 -1 223.613 228.8472)" class="st0" width="8.3" height="3.2"/>
			<path class="st4" d="M105.7,125.3h-8.8c-1.5,0-2.7-1.2-2.7-2.7V79.1c0-1.5,1.2-2.7,2.7-2.7h8.8c1.5,0,2.7,1.2,2.7,2.7v43.4
				C108.5,124.1,107.2,125.3,105.7,125.3z"/>
			<g>
				<path class="st23" d="M103.8,86.7h-1.2v-2h-1.9v2h-1.2v-5h1.2v2.1h1.9v-2.1h1.2V86.7z"/>
				<path class="st23" d="M103.8,93.2c0,0.6-0.2,1.1-0.6,1.5c-0.4,0.4-0.9,0.6-1.5,0.6c-0.6,0-1.2-0.2-1.6-0.6
					c-0.4-0.4-0.6-0.9-0.6-1.5v-0.9c0-0.6,0.2-1.1,0.6-1.5c0.4-0.4,0.9-0.6,1.5-0.6c0.6,0,1.1,0.2,1.5,0.6c0.4,0.4,0.6,0.9,0.6,1.5
					V93.2z M102.6,92.2c0-0.4-0.1-0.7-0.3-0.9c-0.2-0.2-0.4-0.3-0.7-0.3c-0.3,0-0.6,0.1-0.7,0.3c-0.2,0.2-0.3,0.5-0.3,0.9v0.9
					c0,0.4,0.1,0.7,0.3,0.9c0.2,0.2,0.4,0.3,0.7,0.3c0.3,0,0.5-0.1,0.7-0.3c0.2-0.2,0.3-0.5,0.3-0.9V92.2z"/>
				<path class="st23" d="M103.6,99.6h-1.3v4.1h-1.2v-4.1h-1.3v-0.9h3.8V99.6z"/>
				<path class="st23" d="M103,110.1h-1.8v1.3h2.1v0.9h-3.3v-5h3.3v0.9h-2.1v1.1h1.8V110.1z"/>
				<path class="st23" d="M101.3,119.8h2.2v0.9h-3.3v-5h1.2V119.8z"/>
			</g>
		</g>
		<rect x="115" y="68.8" class="st8" width="111.3" height="64.2"/>
		<path class="st8" d="M226.3,139.6v67.8h-30.8c-1.8,0-3.3,1.5-3.3,3.3v1.7h-11.6l6.4-33.5l-1.7,33.5h-24.5h-11.9v-1.7
			c0-1.8-1.5-3.3-3.3-3.3H115v-67.8H226.3z M218.5,197.6v-2.3c0-0.9-0.7-1.5-1.5-1.5h-1.7v-31c0-1.6-1.3-2.9-2.9-2.9h-14.1
			c-1.6,0-2.9,1.3-2.9,2.9v31h-1.7c-0.9,0-1.5,0.7-1.5,1.5v2.3c0,0.9,0.7,1.5,1.5,1.5H217C217.9,199.2,218.5,198.5,218.5,197.6z
			 M147.3,197.6v-2.3c0-0.9-0.7-1.5-1.5-1.5H144v-31c0-1.6-1.3-2.9-2.9-2.9h-14.1c-1.6,0-2.9,1.3-2.9,2.9v31h-1.7
			c-0.9,0-1.5,0.7-1.5,1.5v2.3c0,0.9,0.7,1.5,1.5,1.5h23.2C146.6,199.2,147.3,198.5,147.3,197.6z"/>
		<path class="st8" d="M124.2,193.7v-31c0-1.6,1.3-2.9,2.9-2.9h14.1c1.6,0,2.9,1.3,2.9,2.9v31"/>
		<path class="st8" d="M194.8,193.7v-31c0-1.6,1.3-2.9,2.9-2.9h14.1c1.6,0,2.9,1.3,2.9,2.9v31"/>
		<path class="st3" d="M114.5,189.2c-2.1-1-4.7-0.8-6.8,0.3c-2,1.1-3.5,3.2-4.1,5.5c-0.5,2.3-0.2,4.7,0.9,6.8
			c-1.5-0.5-3.2-0.1-4.4,0.9c-1.2,1-1.9,2.6-1.7,4.2c-3-1.7-7-1.3-9.7,0.8c-2.8,2.1-4.1,5.8-3.3,9.2l30.8-0.5L114.5,189.2z"/>
		<path class="st4" d="M114.5,189.2c-2.1-1-4.7-0.8-6.8,0.3c-2,1.1-3.5,3.2-4.1,5.5c-0.5,2.3-0.2,4.7,0.9,6.8
			c-1.5-0.5-3.2-0.1-4.4,0.9c-1.2,1-1.9,2.6-1.7,4.2c-3-1.7-7-1.3-9.7,0.8c-2.8,2.1-4,6.4-3.2,9.7H115L114.5,189.2z"/>
		<polyline class="st4" points="226.3,217.4 192.2,217.4 148.9,217.4 115,217.4 		"/>
		<path class="st8" d="M226.3,56.4v5.8H115v-5.8c0-4,3.2-7.2,7.2-7.2h96.9C223.1,49.2,226.3,52.4,226.3,56.4z"/>
		<path class="st2" d="M230.2,210.7v6.7h-38v-5v-1.7c0-1.8,1.5-3.3,3.3-3.3h30.8h0.6C228.7,207.4,230.2,208.9,230.2,210.7z"/>
		<path class="st0" d="M227.1,62.1c1.8,0,3.3,1.5,3.3,3.3c0,0.9-0.4,1.8-1,2.4c-0.6,0.6-1.4,1-2.4,1h-0.8H115h-0.8
			c-1.8,0-3.3-1.5-3.3-3.3c0-0.9,0.4-1.8,1-2.4c0.6-0.6,1.4-1,2.4-1h0.8h111.3H227.1z"/>
		<path class="st0" d="M227.1,132.9c1.8,0,3.3,1.5,3.3,3.3c0,0.9-0.4,1.8-1,2.4c-0.6,0.6-1.4,1-2.4,1h-0.8H115h-0.8
			c-1.8,0-3.3-1.5-3.3-3.3c0-0.9,0.4-1.8,1-2.4c0.6-0.6,1.4-1,2.4-1h0.8h111.3H227.1z"/>
		<path class="st2" d="M148.9,212.4v5h-38v-6.7c0-1.8,1.5-3.3,3.3-3.3h0.8h30.5c1.8,0,3.3,1.5,3.3,3.3V212.4z"/>
		<line class="st4" x1="226.3" y1="207.4" x2="226.3" y2="139.6"/>
		<line class="st4" x1="115" y1="207.4" x2="115" y2="139.6"/>
		<path class="st4" d="M115,62.1v-5.8c0-4,3.2-7.2,7.2-7.2h96.9c4,0,7.2,3.2,7.2,7.2v5.8"/>
		<line class="st4" x1="226.3" y1="132.9" x2="226.3" y2="68.8"/>
		<line class="st4" x1="115" y1="132.9" x2="115" y2="68.8"/>
		<path class="st4" d="M148.9,212.4v5h-38v-6.7c0-1.8,1.5-3.3,3.3-3.3h0.8h30.5c1.8,0,3.3,1.5,3.3,3.3V212.4z"/>
		<path class="st4" d="M226.3,207.4h0.6c1.8,0,3.3,1.5,3.3,3.3v6.7h-38v-5v-1.7c0-1.8,1.5-3.3,3.3-3.3H226.3z"/>
		<path class="st4" d="M226.3,62.1h0.8c1.8,0,3.3,1.5,3.3,3.3c0,0.9-0.4,1.8-1,2.4c-0.6,0.6-1.4,1-2.4,1h-0.8H115h-0.8
			c-1.8,0-3.3-1.5-3.3-3.3c0-0.9,0.4-1.8,1-2.4c0.6-0.6,1.4-1,2.4-1h0.8H226.3z"/>
		<path class="st4" d="M226.3,132.9h0.8c1.8,0,3.3,1.5,3.3,3.3c0,0.9-0.4,1.8-1,2.4c-0.6,0.6-1.4,1-2.4,1h-0.8H115h-0.8
			c-1.8,0-3.3-1.5-3.3-3.3c0-0.9,0.4-1.8,1-2.4c0.6-0.6,1.4-1,2.4-1h0.8H226.3z"/>
		<line class="st4" x1="180.6" y1="212.4" x2="192.2" y2="212.4"/>
		<line class="st4" x1="148.9" y1="212.4" x2="160.2" y2="212.4"/>
		<g>
			<path class="st2" d="M147.3,195.3v2.3c0,0.9-0.7,1.5-1.5,1.5h-23.2c-0.9,0-1.5-0.7-1.5-1.5v-2.3c0-0.9,0.7-1.5,1.5-1.5h1.7h3.9
				H140h3.9h1.7C146.6,193.7,147.3,194.4,147.3,195.3z"/>
			<polygon class="st1" points="140,173.3 140,193.7 128.1,193.7 128.1,173.3 128.2,173.3 			"/>
			<polygon class="st1" points="140,164.1 140,173.3 128.2,173.3 128.1,173.3 128.1,164.1 			"/>
			<path class="st4" d="M124.2,193.7v-31c0-1.6,1.3-2.9,2.9-2.9h14.1c1.6,0,2.9,1.3,2.9,2.9v31"/>
			<path class="st4" d="M124.2,193.7h-1.7c-0.9,0-1.5,0.7-1.5,1.5v2.3c0,0.9,0.7,1.5,1.5,1.5h23.2c0.9,0,1.5-0.7,1.5-1.5v-2.3
				c0-0.9-0.7-1.5-1.5-1.5H144H140h-11.9H124.2z"/>
			<line class="st22" x1="128.2" y1="173.3" x2="140" y2="173.3"/>
		</g>
		<g>
			<path class="st2" d="M218.5,195.3v2.3c0,0.9-0.7,1.5-1.5,1.5h-23.2c-0.9,0-1.5-0.7-1.5-1.5v-2.3c0-0.9,0.7-1.5,1.5-1.5h1.7h3.9
				h11.9h3.9h1.7C217.9,193.7,218.5,194.4,218.5,195.3z"/>
			<polygon class="st1" points="211.3,173.3 211.3,193.7 199.4,193.7 199.4,173.3 199.5,173.3 			"/>
			<polygon class="st1" points="211.3,164.1 211.3,173.3 199.5,173.3 199.4,173.3 199.4,164.1 			"/>
			<path class="st4" d="M195.5,193.7v-31c0-1.6,1.3-2.9,2.9-2.9h14.1c1.6,0,2.9,1.3,2.9,2.9v31"/>
			<path class="st4" d="M195.5,193.7h-1.7c-0.9,0-1.5,0.7-1.5,1.5v2.3c0,0.9,0.7,1.5,1.5,1.5H217c0.9,0,1.5-0.7,1.5-1.5v-2.3
				c0-0.9-0.7-1.5-1.5-1.5h-1.7h-3.9h-11.9H195.5z"/>
			<line class="st22" x1="199.5" y1="173.3" x2="211.3" y2="173.3"/>
		</g>
		<g>
			<g>
				<path class="st8" d="M194.8,118V94c0-5.5,4.4-9.9,9.9-9.9c2.7,0,5.2,1.1,7,2.9c1.8,1.8,2.9,4.3,2.9,7V118"/>
				<path class="st2" d="M217.8,119.5v2.3c0,0.8-0.7,1.5-1.5,1.5H193c-0.9,0-1.5-0.7-1.5-1.5v-2.3c0-0.9,0.7-1.5,1.5-1.5h1.7h3.9
					h11.9h3.9h1.7C217.1,118,217.8,118.7,217.8,119.5z"/>
				<polygon class="st1" points="210.6,97.5 210.6,118 198.7,118 198.7,97.5 198.8,97.5 				"/>
				<path class="st1" d="M210.6,94.3v3.2h-11.8h-0.1v-3.2c0-3.3,2.7-6,6-6c1.7,0,3.1,0.7,4.2,1.7C209.9,91.1,210.6,92.6,210.6,94.3z
					"/>
				<path class="st4" d="M194.8,118V94c0-5.5,4.4-9.9,9.9-9.9c2.7,0,5.2,1.1,7,2.9c1.8,1.8,2.9,4.3,2.9,7V118"/>
				<line class="st22" x1="198.8" y1="97.5" x2="210.6" y2="97.5"/>
				<path class="st4" d="M194.8,118H193c-0.9,0-1.5,0.7-1.5,1.5v2.3c0,0.8,0.7,1.5,1.5,1.5h23.2c0.9,0,1.5-0.7,1.5-1.5v-2.3
					c0-0.9-0.7-1.5-1.5-1.5h-1.7h-3.9h-11.9H194.8z"/>
			</g>
			<g>
				<path class="st8" d="M160.8,118V94c0-5.5,4.4-9.9,9.9-9.9c2.7,0,5.2,1.1,7,2.9c1.8,1.8,2.9,4.3,2.9,7V118"/>
				<path class="st2" d="M183.8,119.5v2.3c0,0.8-0.7,1.5-1.5,1.5H159c-0.9,0-1.5-0.7-1.5-1.5v-2.3c0-0.9,0.7-1.5,1.5-1.5h1.7h3.9
					h11.9h3.9h1.7C183.1,118,183.8,118.7,183.8,119.5z"/>
				<polygon class="st1" points="176.6,97.5 176.6,118 164.7,118 164.7,97.5 164.8,97.5 				"/>
				<path class="st1" d="M176.6,94.3v3.2h-11.8h-0.1v-3.2c0-3.3,2.7-6,6-6c1.7,0,3.1,0.7,4.2,1.7C176,91.1,176.6,92.6,176.6,94.3z"
					/>
				<path class="st4" d="M160.8,118V94c0-5.5,4.4-9.9,9.9-9.9c2.7,0,5.2,1.1,7,2.9c1.8,1.8,2.9,4.3,2.9,7V118"/>
				<line class="st22" x1="164.8" y1="97.5" x2="176.6" y2="97.5"/>
				<path class="st4" d="M160.8,118H159c-0.9,0-1.5,0.7-1.5,1.5v2.3c0,0.8,0.7,1.5,1.5,1.5h23.2c0.9,0,1.5-0.7,1.5-1.5v-2.3
					c0-0.9-0.7-1.5-1.5-1.5h-1.7h-3.9h-11.9H160.8z"/>
			</g>
			<g>
				<path class="st8" d="M126.8,118V94c0-5.5,4.4-9.9,9.9-9.9c2.7,0,5.2,1.1,7,2.9c1.8,1.8,2.9,4.3,2.9,7V118"/>
				<path class="st2" d="M149.8,119.5v2.3c0,0.8-0.7,1.5-1.5,1.5h-23.2c-0.9,0-1.5-0.7-1.5-1.5v-2.3c0-0.9,0.7-1.5,1.5-1.5h1.7h3.9
					h11.9h3.9h1.7C149.1,118,149.8,118.7,149.8,119.5z"/>
				<polygon class="st1" points="142.6,97.5 142.6,118 130.7,118 130.7,97.5 130.8,97.5 				"/>
				<path class="st1" d="M142.6,94.3v3.2h-11.8h-0.1v-3.2c0-3.3,2.7-6,6-6c1.7,0,3.1,0.7,4.2,1.7C142,91.1,142.6,92.6,142.6,94.3z"
					/>
				<path class="st4" d="M126.8,118V94c0-5.5,4.4-9.9,9.9-9.9c2.7,0,5.2,1.1,7,2.9c1.8,1.8,2.9,4.3,2.9,7V118"/>
				<line class="st22" x1="130.8" y1="97.5" x2="142.6" y2="97.5"/>
				<path class="st4" d="M126.8,118h-1.7c-0.9,0-1.5,0.7-1.5,1.5v2.3c0,0.8,0.7,1.5,1.5,1.5h23.2c0.9,0,1.5-0.7,1.5-1.5v-2.3
					c0-0.9-0.7-1.5-1.5-1.5h-1.7h-3.9h-11.9H126.8z"/>
			</g>
		</g>
		<line class="st7" x1="290" y1="217.4" x2="294.9" y2="217.4"/>
		<polyline class="st7" points="64.8,217.4 80.3,217.4 142,217.4 209,217.4 218.3,217.4 260.6,217.4 272.5,217.4 283.4,217.4 		"/>
		<g id="XMLID_2_">
			<g>
				<path class="st3" d="M80.1,196c-5.1,0-10.1-2.8-12.9-7c-2.8-4.3-3.2-10-1.2-14.7c1.2-2.7,3.2-5.1,3.8-8
					c0.7-3.7-1.1-7.5-0.7-11.3c0.3-2.8,1.8-5.4,4.1-7c2-1.4,4.6-2.6,7-2.6c2.8,0,5,1.2,7,2.6c2.3,1.6,3.8,4.3,4.1,7
					c0.4,3.8-1.4,7.6-0.7,11.3c0.6,2.9,2.6,5.3,3.8,8c2.1,4.7,1.6,10.4-1.2,14.7c-2.8,4.3-7.8,7-12.9,7H80.1L80.1,196z"/>
			</g>
			<g>
				<polyline class="st13" points="80.1,168.7 80.1,178 80.1,184.5 80.1,196 80.1,217.4 				"/>
				<line class="st13" x1="87" y1="180.7" x2="80.1" y2="184.5"/>
				<line class="st13" x1="74.3" y1="174.2" x2="80.1" y2="178"/>
				<path class="st13" d="M80.2,196c5.1,0,10.1-2.8,12.9-7c2.8-4.3,3.2-10,1.2-14.7c-1.2-2.7-3.2-5.1-3.8-8
					c-0.7-3.7,1.1-7.5,0.7-11.3c-0.3-2.8-1.8-5.4-4.1-7c-2-1.4-4.1-2.6-7-2.6c-2.4,0-5,1.2-7,2.6c-2.3,1.6-3.8,4.3-4.1,7
					c-0.4,3.8,1.4,7.6,0.7,11.3c-0.6,2.9-2.5,5.3-3.8,8c-2.1,4.7-1.6,10.4,1.2,14.7c2.8,4.3,7.8,7,12.9,7h0"/>
			</g>
		</g>
		<g>
			<rect x="159" y="179.5" class="st2" width="23.4" height="32.9"/>
			<line class="st4" x1="164.1" y1="194.7" x2="164.1" y2="199.2"/>
			<rect x="159" y="178.9" class="st4" width="23.4" height="33.5"/>
			<path class="st1" d="M159,178.4v-0.4c0-6.4,5.2-11.7,11.7-11.7h0c6.4,0,11.7,5.2,11.7,11.7v0.4"/>
			<path class="st13" d="M159,178.9v-0.4c0-6.4,5.2-11.7,11.7-11.7h0c6.4,0,11.7,5.2,11.7,11.7v0.4"/>
		</g>
		<rect x="115" y="68.8" class="st10" width="110.8" height="5"/>
		<rect x="115" y="140.1" class="st10" width="110.8" height="5"/>
		<g>
			<g>
				<g class="st12">
					<g>
						<circle class="st0" cx="245.9" cy="146.9" r="41.2"/>
						<circle class="st0" cx="245.9" cy="146.9" r="41.2"/>
					</g>
				</g>
				<g>
					<circle class="st8" cx="251.4" cy="143.8" r="41.2"/>
					<circle class="st7" cx="251.4" cy="143.8" r="41.2"/>
				</g>
			</g>
			<g>
				<path class="st3" d="M252.7,117.7c6.8,4.6,15.6,6.1,23.5,4.2v26.2c0,2.6-0.4,5.2-1.4,7.6c-1.6,4-4.1,7.7-7.1,10.7
					c-4.3,4.2-9.5,7.3-15,9.7c-5.5-2.4-10.7-5.5-15-9.7c-3.1-3-5.6-6.7-7.1-10.7c-1-2.4-1.4-5-1.4-7.6v-26.2
					C237.1,123.8,245.9,122.3,252.7,117.7z"/>
				<path class="st4" d="M252.7,117.7c6.8,4.6,15.6,6.1,23.5,4.2v26.2c0,2.6-0.4,5.2-1.4,7.6c-1.6,4-4.1,7.7-7.1,10.7
					c-4.3,4.2-9.5,7.3-15,9.7c-5.5-2.4-10.7-5.5-15-9.7c-3.1-3-5.6-6.7-7.1-10.7c-1-2.4-1.4-5-1.4-7.6v-26.2
					C237.1,123.8,245.9,122.3,252.7,117.7z"/>
				<path class="st8" d="M252.7,123.8c5.4,3.6,12.3,4.8,18.7,3.3v20.8c0,2.1-0.3,4.1-1.1,6c-1.3,3.2-3.2,6.1-5.7,8.5
					c-3.4,3.3-7.6,5.8-11.9,7.7c-4.3-1.9-8.5-4.4-11.9-7.7c-2.4-2.4-4.4-5.3-5.7-8.5c-0.8-1.9-1.1-4-1.1-6v-20.8
					C240.3,128.6,247.3,127.4,252.7,123.8z"/>
			</g>
			<path class="st0" d="M255.5,159.9c3.2-0.4,6-2.6,7.6-5.5s1.8-6.3,1.1-9.4s-2.3-6.1-4.3-8.6c-2-2.5-4.4-4.7-6.9-6.8
				c0.1,2.6-0.6,5.1-2,7.2c-1.4-1.5-3.3-2.5-5.3-2.9c0.9,1.1,0.9,2.5,0.6,3.9s-1.1,2.6-1.9,3.7c-0.8,1.1-1.7,2.2-2.4,3.5
				c-1.5,2.9-1.5,6.7,0.2,9.5c1.7,2.9,4.9,4.8,8.2,4.9c-1.8-0.9-3.3-2.8-3.9-4.8c-0.6-2-0.2-4.1,0.9-5.9c0.7-1.1,1.7-2,2.4-3.1
				c0.7-1.1,1.1-2.6,0.4-3.7c1.9,0.7,3.3,2.6,3.4,4.6c1.2-1.9,2-4.2,1.8-6.4c2.7,2.5,4.4,6,4.5,9.7
				C259.9,153.6,258.2,157.4,255.5,159.9z"/>
		</g>
	</g>
</g>
</svg>
