<?xml version="1.0" encoding="utf-8"?>
<!-- Generator: Adobe Illustrator 25.0.0, SVG Export Plug-In . SVG Version: 6.00 Build 0)  -->
<svg version="1.1" xmlns="http://www.w3.org/2000/svg" xmlns:xlink="http://www.w3.org/1999/xlink" x="0px" y="0px"
	 viewBox="0 0 350.8 268.9" style="enable-background:new 0 0 350.8 268.9;" xml:space="preserve">
<style type="text/css">
	.st0{fill:#21437F;}
	.st1{fill:#8CB8FF;}
	.st2{fill:#4780FF;}
	.st3{fill:#41C9A7;}
	.st4{fill:none;stroke:#21437F;stroke-width:2;stroke-linecap:round;stroke-linejoin:round;stroke-miterlimit:10;}
	.st5{fill:none;stroke:#152E4D;stroke-linecap:round;stroke-linejoin:round;stroke-miterlimit:10;}
	.st6{opacity:0.4;fill:#DFE3E6;}
	.st7{fill:none;stroke:#21437F;stroke-width:2;stroke-miterlimit:10;}
	.st8{fill:#FFFFFF;}
	.st9{opacity:0.22;fill:#4780FF;}
	.st10{opacity:0.15;fill:#21437F;}
	.st11{opacity:0.4;fill:#FFFFFF;}
	.st12{opacity:0.15;}
	.st13{fill:none;stroke:#21437F;stroke-width:2;stroke-linecap:round;stroke-miterlimit:10;}
	.st14{opacity:0.15;fill:#A9ABBA;}
	.st15{fill:#FBFEFE;}
	.st16{fill:#38A384;}
	.st17{fill:#406FF9;}
	.st18{fill:#ECA881;}
	.st19{fill:#F6B18A;}
	.st20{fill:#282C52;}
	.st21{fill:#E4854D;}
	.st22{fill:none;stroke:#FFFFFF;stroke-width:2;stroke-linecap:round;stroke-linejoin:round;stroke-miterlimit:10;}
	.st23{fill:#21437F;stroke:#21437F;stroke-width:0.5;stroke-miterlimit:10;}
</style>
<g id="Layer_2">
</g>
<g id="Layer_1">
	<g>
		<path class="st6" d="M46.9,145.9c-0.6-30,16.4-51.1,36.6-54.3s41.1-0.8,55.5-12.4s34.4-40.3,57.2-40.8
			C252,37.2,302.8,121.2,303.9,171s-33.4,65-54.4,65.5s-44.9-26.6-71.2-26c-26.3,0.6-34.6,13.9-65,14.6
			C82.8,225.7,47.9,188.2,46.9,145.9z"/>
		<line class="st7" x1="290" y1="217.4" x2="294.9" y2="217.4"/>
		<polyline class="st7" points="64.8,217.4 80.3,217.4 142,217.4 209,217.4 218.3,217.4 260.6,217.4 272.5,217.4 283.4,217.4 		"/>
		<g>
			<g>
				<path class="st8" d="M110.1,145.2c3.9-4.2,8.2-8,12.9-11.3l22.9-15.9l29.8-20.7L209.1,74c6.5-4.2,14-6.7,21.7-7.2
					c5.2,4.4,9.5,9.9,12.5,16.1h0c-3,7.5-7.9,14.2-14.3,19.1L196,126l-29.3,21.3l-22.5,16.4c-4.7,3.4-9.8,6.3-15.1,8.6
					c-2.9,1.2-5.8,2.3-8.8,3.1c-3.5,1-7.1,1.9-10.6,2.7c-3.6,0.8-7.2,1.4-10.8,2l-3.9,0.6c10-5.9,19.4-12.7,28.3-20
					c1.4-1.1,2.8-2.3,3.8-3.7c1.1-1.4,1.8-3.2,1.8-5c-1.7-0.6-3.6-0.5-5.3,0c-1.7,0.5-3.3,1.5-4.8,2.4c-9.4,5.7-18.5,11.9-27,18.9
					l0,0l1-1.8c1.7-3.3,3.6-6.5,5.5-9.7h0c1.9-3.1,3.8-6.1,5.9-9C105.9,150,107.9,147.5,110.1,145.2z M217.5,78.8c0,0,0-0.1,0-0.2
					c0,0,0-0.1,0-0.1c-0.1,0-0.2,0-0.2-0.1c-1.1-0.3-2.2-0.4-3.3-0.2c-0.5,0.1-1.1,0.2-1.6,0.4c-0.3,0.1-0.5,0.2-0.8,0.3
					c-0.1,0-0.7,0.3-0.7,0.4c0,0,0.5,2.3,0.7,3.3c1.5-0.4,3-0.4,4.5-0.1c0-0.1,0.1-0.2,0.1-0.3c0.2-0.6,0.5-1.3,0.7-1.9
					C217.1,79.8,217.3,79.3,217.5,78.8z M220.8,86c1.7-1.3,5.3-4,5.3-4c-0.9-1.2-2.3-2-3.8-2.4c-0.9-0.2-1.7-0.3-2.6-0.3l-1.9,4.3
					C219,83.5,220,84.7,220.8,86z M222.9,91.1l4.7-0.2c0.3-0.8,0.5-1.7,0.6-2.6c0.2-1.6,0-3.1-0.8-4.5c0,0-3.8,2.3-5.7,3.4
					C222.6,88.5,223.3,89.9,222.9,91.1z M227.4,93.1C227.4,93,227.4,93,227.4,93.1c-0.1-0.1-0.2-0.1-0.2-0.1c-0.6,0-1.1,0-1.7,0
					c-0.7,0-1.3,0-2,0c-0.1,0-0.2,0-0.4,0c-0.2,1.5-0.8,2.9-1.7,4.2c0.9,0.6,2.8,1.9,2.8,1.9c0,0,0.6-0.5,0.6-0.5
					c0.2-0.2,0.4-0.4,0.6-0.6c0.4-0.4,0.7-0.9,0.9-1.4c0.5-1,0.9-2.1,1-3.2C227.4,93.3,227.5,93.2,227.4,93.1z M208.3,110.2
					c0.4-0.3,0.4-0.8,0.2-1.1l-0.6-0.9c-0.3-0.4-0.8-0.4-1.1-0.2l-3.5,2.5c-0.4,0.3-0.4,0.8-0.2,1.1l0.6,0.8
					c0.3,0.4,0.8,0.4,1.1,0.2L208.3,110.2z M199.8,116.2c0.4-0.3,0.4-0.8,0.2-1.1l-0.6-0.9c-0.3-0.4-0.8-0.4-1.1-0.2l-3.5,2.5
					c-0.4,0.3-0.4,0.8-0.2,1.1l0.6,0.9c0.3,0.4,0.8,0.4,1.1,0.2L199.8,116.2z M197,93.3c0.4-0.3,0.4-0.8,0.2-1.1l-0.6-0.9
					c-0.3-0.4-0.8-0.4-1.1-0.2l-3.5,2.5c-0.4,0.3-0.4,0.8-0.2,1.1l0.6,0.8c0.3,0.4,0.8,0.4,1.1,0.2L197,93.3z M191.4,122.1
					c0.4-0.3,0.4-0.8,0.2-1.1l-0.6-0.9c-0.3-0.4-0.8-0.4-1.1-0.2l-3.5,2.5c-0.4,0.3-0.4,0.8-0.2,1.1l0.6,0.9
					c0.3,0.4,0.8,0.4,1.1,0.2L191.4,122.1z M188.5,99.2c0.4-0.3,0.4-0.8,0.2-1.1l-0.6-0.9c-0.3-0.4-0.8-0.4-1.1-0.2l-3.5,2.5
					c-0.4,0.3-0.4,0.8-0.2,1.1l0.6,0.8c0.3,0.4,0.8,0.4,1.1,0.2L188.5,99.2z M183,128c0.4-0.3,0.4-0.8,0.2-1.1l-0.6-0.9
					c-0.3-0.4-0.8-0.4-1.1-0.2l-3.5,2.5c-0.4,0.3-0.4,0.8-0.2,1.1l0.6,0.9c0.3,0.4,0.8,0.4,1.1,0.2L183,128z M180.1,105.1
					c0.4-0.3,0.4-0.8,0.2-1.1l-0.6-0.9c-0.3-0.4-0.8-0.4-1.1-0.2l-3.5,2.5c-0.4,0.3-0.4,0.8-0.2,1.1l0.6,0.8
					c0.3,0.4,0.8,0.4,1.1,0.2L180.1,105.1z M174.5,133.9c0.4-0.3,0.4-0.8,0.2-1.1l-0.6-0.8c-0.3-0.4-0.8-0.4-1.1-0.2l-3.5,2.5
					c-0.4,0.3-0.4,0.8-0.2,1.1l0.6,0.9c0.3,0.4,0.8,0.4,1.1,0.2L174.5,133.9z M171.7,111.1c0.4-0.3,0.4-0.8,0.2-1.1l-0.6-0.9
					c-0.3-0.4-0.8-0.4-1.1-0.2l-3.5,2.5c-0.4,0.3-0.4,0.8-0.2,1.1l0.6,0.9c0.3,0.4,0.8,0.4,1.1,0.2L171.7,111.1z M166.1,139.8
					c0.4-0.3,0.4-0.8,0.2-1.1l-0.6-0.8c-0.3-0.4-0.8-0.4-1.1-0.2l-3.5,2.5c-0.4,0.3-0.4,0.8-0.2,1.1l0.6,0.9
					c0.3,0.4,0.8,0.4,1.1,0.2L166.1,139.8z M163.2,117c0.4-0.3,0.4-0.8,0.2-1.1l-0.6-0.9c-0.3-0.4-0.8-0.4-1.1-0.2l-3.5,2.5
					c-0.4,0.3-0.4,0.8-0.2,1.1l0.6,0.9c0.3,0.4,0.8,0.4,1.1,0.2L163.2,117z M157.7,145.7c0.4-0.3,0.4-0.8,0.2-1.1l-0.6-0.8
					c-0.3-0.4-0.8-0.4-1.1-0.2l-3.5,2.5c-0.4,0.3-0.4,0.8-0.2,1.1l0.6,0.9c0.3,0.4,0.8,0.4,1.1,0.2L157.7,145.7z M154.8,122.9
					c0.4-0.3,0.4-0.8,0.2-1.1l-0.6-0.8c-0.3-0.4-0.8-0.4-1.1-0.2l-3.5,2.5c-0.4,0.3-0.4,0.8-0.2,1.1l0.6,0.9
					c0.3,0.4,0.8,0.4,1.1,0.2L154.8,122.9z M149.2,151.6c0.4-0.3,0.4-0.8,0.2-1.1l-0.6-0.8c-0.3-0.4-0.8-0.4-1.1-0.2l-3.5,2.5
					c-0.4,0.3-0.4,0.8-0.2,1.1l0.6,0.8c0.3,0.4,0.8,0.4,1.1,0.2L149.2,151.6z M146.4,128.8c0.4-0.3,0.4-0.8,0.2-1.1l-0.6-0.8
					c-0.3-0.4-0.8-0.4-1.1-0.2l-3.5,2.5c-0.4,0.3-0.4,0.8-0.2,1.1l0.6,0.9c0.3,0.4,0.8,0.4,1.1,0.2L146.4,128.8z M137.9,134.7
					c0.4-0.3,0.4-0.8,0.2-1.1l-0.6-0.8c-0.3-0.4-0.8-0.4-1.1-0.2l-3.5,2.5c-0.4,0.3-0.4,0.8-0.2,1.1l0.6,0.9
					c0.3,0.4,0.8,0.4,1.1,0.2L137.9,134.7z"/>
				<path class="st8" d="M246.7,68.3c-0.3,5-1.5,9.9-3.4,14.5h0c-3-6.1-7.3-11.6-12.5-16.1C236.1,66.4,241.5,66.9,246.7,68.3z"/>
				<path class="st0" d="M227.4,83.9c0.8,1.3,1,2.9,0.8,4.5c-0.1,0.9-0.3,1.8-0.6,2.6l-4.7,0.2c0.5-1.2-0.3-2.7-1.2-3.8
					C223.5,86.2,227.4,83.9,227.4,83.9z"/>
				<path class="st0" d="M227.4,93C227.4,93,227.4,93,227.4,93c0.1,0.1,0,0.2,0,0.3c-0.1,1.1-0.5,2.2-1,3.2
					c-0.3,0.5-0.6,0.9-0.9,1.4c-0.2,0.2-0.4,0.4-0.6,0.6c-0.1,0.1-0.6,0.6-0.6,0.5c0,0-2-1.3-2.8-1.9c0.9-1.2,1.5-2.7,1.7-4.2
					c0.1,0,0.2,0,0.4,0c0.7,0,1.3,0,2,0c0.6,0,1.1,0,1.7,0C227.2,93,227.3,93,227.4,93z"/>
				<path class="st0" d="M217.7,83.5l1.9-4.3c0.9,0,1.8,0.1,2.6,0.3c1.5,0.4,2.9,1.2,3.8,2.4c0,0-3.6,2.7-5.3,4
					C220,84.7,219,83.5,217.7,83.5z"/>
				<path class="st0" d="M217.3,78.5c0.1,0,0.2,0,0.2,0.1c0,0,0,0,0,0.1c0,0,0,0.1,0,0.2c-0.2,0.5-0.4,1-0.6,1.6
					c-0.2,0.6-0.5,1.2-0.7,1.9c0,0.1-0.1,0.2-0.1,0.3c-1.5-0.3-3-0.3-4.5,0.1c-0.2-1-0.7-3.3-0.7-3.3c0-0.1,0.7-0.4,0.7-0.4
					c0.2-0.1,0.5-0.2,0.8-0.3c0.5-0.2,1.1-0.3,1.6-0.4C215.1,78.1,216.2,78.2,217.3,78.5z"/>
				<path class="st8" d="M215.7,154.5c0.8,1.2,0.6,2.8-0.6,3.7c-0.9,0.7-1.8,1.3-2.7,2l-9.1-13.5l2.3-1.8c1.2-0.9,2.9-0.7,3.8,0.6
					L215.7,154.5z"/>
				<path class="st1" d="M203.3,146.7l9.1,13.5c-4.4,3.3-9.1,6.8-11.9,8.9l-1.8-18.7L203.3,146.7z"/>
				<path class="st0" d="M207.8,108.3l0.6,0.9c0.3,0.4,0.2,0.9-0.2,1.1l-3.5,2.5c-0.4,0.3-0.9,0.2-1.1-0.2l-0.6-0.8
					c-0.3-0.4-0.2-0.9,0.2-1.1l3.5-2.5C207.1,107.8,207.6,107.9,207.8,108.3z"/>
				<path class="st2" d="M200.4,169l2.9,29.2c-0.2,7.2-4.4,14.8-10.7,18.4l-8.8-23.5h0c1.7-1.1,3.7-2.5,5.6-3.8
					c-2.8-8.3-8.4-25.2-12-35.8c-2.1,1.3-4.6,3-6.8,4.5l-3.8-10.3l-0.2-0.3L196,126l0.3,0.4l2.3,24L200.4,169z"/>
				<path class="st0" d="M199.4,114.2l0.6,0.9c0.3,0.4,0.2,0.9-0.2,1.1l-3.5,2.5c-0.4,0.3-0.9,0.2-1.1-0.2l-0.6-0.9
					c-0.3-0.4-0.2-0.9,0.2-1.1l3.5-2.5C198.6,113.7,199.1,113.8,199.4,114.2z"/>
				<path class="st0" d="M196.5,91.4l0.6,0.9c0.3,0.4,0.2,0.9-0.2,1.1l-3.5,2.5c-0.4,0.3-0.9,0.2-1.1-0.2l-0.6-0.8
					c-0.3-0.4-0.2-0.9,0.2-1.1l3.5-2.5C195.8,90.9,196.3,91,196.5,91.4z"/>
				<path class="st0" d="M191,120.1l0.6,0.9c0.3,0.4,0.2,0.9-0.2,1.1l-3.5,2.5c-0.4,0.3-0.9,0.2-1.1-0.2l-0.6-0.9
					c-0.3-0.4-0.2-0.9,0.2-1.1l3.5-2.5C190.2,119.6,190.7,119.7,191,120.1z"/>
				<path class="st0" d="M183.5,99.6l3.5-2.5c0.4-0.3,0.9-0.2,1.1,0.2l0.6,0.9c0.3,0.4,0.2,0.9-0.2,1.1l-3.5,2.5
					c-0.4,0.3-0.9,0.2-1.1-0.2l-0.6-0.8C183,100.4,183.1,99.9,183.5,99.6z"/>
				<path class="st1" d="M189.5,189.3c-2,1.3-4,2.7-5.6,3.8h0l-13.1-35.2c2.2-1.5,4.7-3.1,6.8-4.5
					C181.1,164.1,186.7,180.9,189.5,189.3z"/>
				<path class="st0" d="M182.5,126l0.6,0.9c0.3,0.4,0.2,0.9-0.2,1.1l-3.5,2.5c-0.4,0.3-0.9,0.2-1.1-0.2l-0.6-0.9
					c-0.3-0.4-0.2-0.9,0.2-1.1l3.5-2.5C181.8,125.5,182.3,125.6,182.5,126z"/>
				<path class="st0" d="M179.7,103.2l0.6,0.9c0.3,0.4,0.2,0.9-0.2,1.1l-3.5,2.5c-0.4,0.3-0.9,0.2-1.1-0.2l-0.6-0.8
					c-0.3-0.4-0.2-0.9,0.2-1.1l3.5-2.5C178.9,102.7,179.4,102.8,179.7,103.2z"/>
				<path class="st2" d="M175.3,96.8l0.3,0.5L145.8,118l-0.3-0.4l-8.5-7c2.1-1.6,4.5-3.4,6.4-4.9c-8.9-6.9-22.9-17.7-29.9-23.1
					c-1.9,1.4-3.9,2.9-5.5,4.1l-19.3-16c5.4-4.8,14-6.2,20.8-4.1l26.6,12.3l17.1,7.9L175.3,96.8z"/>
				<path class="st0" d="M174.1,131.9l0.6,0.8c0.3,0.4,0.2,0.9-0.2,1.1l-3.5,2.5c-0.4,0.3-0.9,0.2-1.1-0.2l-0.6-0.9
					c-0.3-0.4-0.2-0.9,0.2-1.1l3.5-2.5C173.3,131.4,173.8,131.5,174.1,131.9z"/>
				<path class="st0" d="M171.2,109.1l0.6,0.9c0.3,0.4,0.2,0.9-0.2,1.1l-3.5,2.5c-0.4,0.3-0.9,0.2-1.1-0.2l-0.6-0.9
					c-0.3-0.4-0.2-0.9,0.2-1.1l3.5-2.5C170.5,108.6,171,108.7,171.2,109.1z"/>
				<path class="st0" d="M165.7,137.8l0.6,0.8c0.3,0.4,0.2,0.9-0.2,1.1l-3.5,2.5c-0.4,0.3-0.9,0.2-1.1-0.2l-0.6-0.9
					c-0.3-0.4-0.2-0.9,0.2-1.1l3.5-2.5C164.9,137.3,165.4,137.4,165.7,137.8z"/>
				<path class="st8" d="M161.5,78.1c0.9,1.2,0.6,2.9-0.7,3.8l-2.4,1.6l-9.7-13c1-0.7,1.9-1.3,2.8-1.9c1.2-0.8,2.8-0.5,3.6,0.6
					L161.5,78.1z"/>
				<path class="st0" d="M162.8,115l0.6,0.9c0.3,0.4,0.2,0.9-0.2,1.1l-3.5,2.5c-0.4,0.3-0.9,0.2-1.1-0.2l-0.6-0.9
					c-0.3-0.4-0.2-0.9,0.2-1.1l3.5-2.5C162,114.5,162.5,114.6,162.8,115z"/>
				<path class="st1" d="M148.6,70.5l9.7,13l-4.9,3.2l-17.1-7.9C139.2,76.9,144,73.6,148.6,70.5z"/>
				<path class="st0" d="M157.2,143.7l0.6,0.8c0.3,0.4,0.2,0.9-0.2,1.1l-3.5,2.5c-0.4,0.3-0.9,0.2-1.1-0.2l-0.6-0.9
					c-0.3-0.4-0.2-0.9,0.2-1.1l3.5-2.5C156.5,143.2,157,143.3,157.2,143.7z"/>
				<path class="st0" d="M154.4,120.9l0.6,0.8c0.3,0.4,0.2,0.9-0.2,1.1l-3.5,2.5c-0.4,0.3-0.9,0.2-1.1-0.2l-0.6-0.9
					c-0.3-0.4-0.2-0.9,0.2-1.1l3.5-2.5C153.6,120.4,154.1,120.5,154.4,120.9z"/>
				<path class="st0" d="M148.8,149.6l0.6,0.8c0.3,0.4,0.2,0.9-0.2,1.1l-3.5,2.5c-0.4,0.3-0.9,0.2-1.1-0.2l-0.6-0.8
					c-0.3-0.4-0.2-0.9,0.2-1.1l3.5-2.5C148,149.1,148.5,149.2,148.8,149.6z"/>
				<path class="st0" d="M144.8,126.6c0.4-0.3,0.9-0.2,1.1,0.2l0.6,0.8c0.3,0.4,0.2,0.9-0.2,1.1l-3.5,2.5c-0.4,0.3-0.9,0.2-1.1-0.2
					l-0.6-0.9c-0.3-0.4-0.2-0.9,0.2-1.1L144.8,126.6z"/>
				<path class="st1" d="M143.5,105.6c-1.9,1.5-4.3,3.3-6.4,4.9l-28.9-23.9c1.6-1.2,3.6-2.7,5.5-4.1
					C120.6,87.9,134.6,98.7,143.5,105.6z"/>
				<path class="st0" d="M137.5,132.7l0.6,0.8c0.3,0.4,0.2,0.9-0.2,1.1l-3.5,2.5c-0.4,0.3-0.9,0.2-1.1-0.2l-0.6-0.9
					c-0.3-0.4-0.2-0.9,0.2-1.1l3.5-2.5C136.7,132.2,137.2,132.3,137.5,132.7z"/>
				<path class="st1" d="M129.1,172.3l-0.4,28.4c-0.2,5-3.8,10.3-8.5,12.2l-2.6-8.5l3.6-2.7c0.8-0.6,1.1-1.6,0.9-2.5
					c-1-3.8-2.6-10.4-3.6-14.1c-0.4-1.4-1.9-2.2-3.2-1.6l-3.6,1.5l-2.1-6.9c3.6-0.8,7.1-1.7,10.6-2.7
					C123.3,174.6,126.3,173.5,129.1,172.3z"/>
				<path class="st2" d="M128.8,151.9c0.1,1.8-0.7,3.5-1.8,5c-1.1,1.4-2.4,2.6-3.8,3.7c-8.9,7.4-18.3,14.2-28.3,20
					c-0.9,0.5-1.8,1-2.6,1.5c-1.1,0.6-2.3,1.3-3.6,1.5c-0.4,0.1-0.9,0.1-1.3,0c-1.6-0.2-2.7-1.7-2.3-3.3c0.1-0.4,0.2-0.8,0.5-1.2
					c0.6-1.1,1.6-2,2.6-2.9c1.2-1,2.4-2.1,3.6-3.1c8.5-7,17.6-13.3,27-18.9c1.5-0.9,3.1-1.8,4.8-2.4
					C125.3,151.4,127.1,151.3,128.8,151.9z"/>
				<path class="st2" d="M122.2,199.2c0.2,0.9-0.1,1.9-0.9,2.5l-3.6,2.7l-5.9-19.4l3.6-1.5c1.4-0.6,2.9,0.2,3.2,1.6
					C119.6,188.8,121.2,195.4,122.2,199.2z"/>
				<path class="st1" d="M82.7,136.2l27.4,9c-2.2,2.4-4.2,4.9-6,7.5c-2.1,2.9-4,6-5.9,9h0l-0.6-0.4l-5.5-4l2.6-2.9
					c1-1.1,0.7-2.8-0.5-3.6c-3.2-2.1-8.9-5.8-12.2-7.9c-0.8-0.5-1.9-0.5-2.7,0l-3.7,2.5l-7.2-5.2C71.7,136.4,77.9,134.7,82.7,136.2z
					"/>
				<path class="st2" d="M94.2,150.8c1.2,0.8,1.5,2.5,0.5,3.6l-2.6,2.9l-16.4-11.9l3.7-2.5c0.8-0.5,1.9-0.6,2.7,0
					C85.2,145,90.9,148.7,94.2,150.8z"/>
			</g>
			<path class="st9" d="M225.5,72.8c-6.5,3-12.4,7.1-18.2,11.3c-23.6,16.6-47.1,33.3-70.7,49.9c-13.2,9.3-26.4,19.2-35.8,32.5
				l-8.1,7.3c8.3-20.2,23.4-37.2,42.2-48.3c0,0,77.8-53.2,77.8-53.2c4.7-3.2,10.4-5.1,16.1-5.8c2-0.2,16.7-0.5,16.2,2.2
				C238.1,69,232,69.8,225.5,72.8z"/>
			<path class="st10" d="M129,176.1c-1.6,1.7-3.8,2.6-6,3.2c-2.2,0.6-4.5,1-6.6,1.9c-2.1,0.9-4.1,2.5-4.7,4.8
				c-0.7-2.6-1.6-5.1-2.7-7.5c3.5,0.2,6.9-0.7,10.2-1.8c3.3-1.2,6.5-2.5,9.9-3.3c0,0.6,0,1.3,0,1.9"/>
			<path class="st10" d="M196.2,127c-5.2,4.3-10.3,8.7-14.8,13.8c-4.4,5.1-8.1,10.9-9.9,17.4c-2.5-3.4-4.4-7.2-5.5-11.3
				c9.4-5.6,17.7-12.9,26.8-19.1c1.3-0.9,2.7-1.8,4.1-2.4"/>
			<path class="st10" d="M213.5,152.7c0,0.5-0.4,1-0.8,1.4c-0.4,0.4-0.8,0.9-1.4,0.9l-11.6,8.9c0.2,1.5,0.4,3.1,0.6,4.6
				c0,0,15.3-11.8,15.3-11.8c0.3-0.2-1-2.8-1.1-3.1c-0.3-0.5-0.5-1-0.9-1.5c-0.3-0.4-0.7-0.7-0.8-1.2
				C213.2,151.4,213.5,152.1,213.5,152.7z"/>
			<path class="st10" d="M158.8,77.6l-10.9,6.3c1.6,1.2,3.4,2.3,5.3,3c0,0,8.5-5.4,8.5-5.4c0.5-0.3-0.4-3.1-0.6-3.5
				c-0.4-1-1-2.1-1.9-2.8C159.4,75.9,159.5,77,158.8,77.6z"/>
			<path class="st11" d="M94.4,142.1c1.4,0.8,2.7,1.6,3.7,2.8c1.8,2.2,2.2,5.4,1.8,8.2c-0.4,2.9-1.5,5.6-2,8.4l12.4-17.2
				c-3.1-0.4-6.1-0.9-9-1.7c-3.2-0.9-6.3-1.7-9.4-2.6c-1.6-0.5-3.2-0.9-4.8-1.4c-0.8-0.3-1.6-0.5-2.4-0.8c-0.5-0.2-1.3-0.3-1.7-0.7
				c1.9,0.4,3.9,1.4,5.7,2.2C90.6,140.2,92.5,141.1,94.4,142.1z"/>
			<path class="st11" d="M150,85.5c1.7,0.5,3.3,1.1,4.9,1.9c1.5,0.8,2.9,2,3.7,3.6c0.7,1.3,1,2.9,1.1,4.4c0.4,5.7-1.3,11.6-4.7,16.2
				c0.1,0,0.2-0.1,0.3-0.1l19.5-14.9c-7.1-2.7-14-5.6-20.9-8.8"/>
			<path class="st4" d="M91.5,173.3l1-1.8c3.4-6.5,7.2-12.8,11.4-18.7c5.1-7.3,11.6-13.6,18.9-18.8L208.8,74
				c10.3-6.7,23.2-8.8,35.3-6.3c1.3,0.3,2.3,1.6,2.1,2.9c-1.5,12.2-7.7,23.8-17.4,31.3L144,163.8c-7.2,5.3-15.3,9.3-23.9,11.8
				c-7,2-14.2,3.6-21.4,4.6l-3.9,0.6"/>
			<path class="st4" d="M128.5,152c-1.7-0.7-3.6-0.5-5.3,0s-3.3,1.4-4.8,2.4c-10.8,6.5-21.1,13.7-30.6,22c-1,0.9-2,1.8-2.6,2.9
				c-0.2,0.4-0.4,0.8-0.5,1.2c-0.4,1.6,0.7,3.1,2.3,3.3c0.4,0.1,0.9,0,1.3,0c1.3-0.2,2.5-0.8,3.6-1.5c10.9-6.2,21.2-13.6,30.9-21.6
				c1.4-1.1,2.8-2.3,3.8-3.7C127.9,155.5,128.6,153.8,128.5,152"/>
			<path class="st4" d="M109.9,145.3l-27.5-9c-4.8-1.4-10.9,0.3-14.3,4l29.1,21.1"/>
			<path class="st4" d="M175,96.9l-65.6-30.3c-6.9-2.2-15.4-0.7-20.8,4l56.7,46.9"/>
			<path class="st4" d="M107.9,86.7c1.6-1.2,3.6-2.7,5.5-4.1c7,5.4,21,16.2,29.9,23.1c-1.9,1.5-4.3,3.3-6.4,4.9"/>
			<path class="st4" d="M153.2,86.8l7.4-4.8c1.3-0.8,1.6-2.5,0.7-3.8l-6.4-8.9c-0.8-1.2-2.5-1.4-3.6-0.6
				c-5.2,3.6-11.6,7.9-15.1,10.3"/>
			<line class="st4" x1="148.3" y1="70.6" x2="158.1" y2="83.6"/>
			<path class="st4" d="M196,126.4l7,71.9c-0.2,7.2-4.4,14.8-10.7,18.4l-25.7-69"/>
			<path class="st4" d="M183.6,193.2c1.7-1.1,3.7-2.5,5.7-3.8c-2.8-8.3-8.4-25.2-12-35.8c-2,1.3-4.6,3-6.8,4.4"/>
			<path class="st4" d="M198.3,150.4l7-5.4c1.2-0.9,2.9-0.7,3.8,0.6l6.3,9c0.8,1.2,0.6,2.8-0.6,3.6c-5.1,3.8-11.3,8.4-14.6,10.9"/>
			<line class="st4" x1="212.1" y1="160.2" x2="203" y2="146.8"/>
			<path class="st5" d="M75.3,145.5l3.7-2.5c0.8-0.6,1.9-0.6,2.7,0c3.3,2.1,9,5.9,12.2,7.9c1.2,0.8,1.5,2.5,0.5,3.6l-2.6,2.9"/>
			<path class="st4" d="M128.9,172.4l-0.4,28.4c-0.2,5-3.8,10.3-8.5,12.2l-10.6-34.7"/>
			<path class="st5" d="M117.4,204.5l3.6-2.7c0.8-0.6,1.1-1.6,0.9-2.5c-1-3.8-2.6-10.4-3.6-14.1c-0.4-1.4-1.9-2.2-3.2-1.6l-3.6,1.5"
				/>
			<g>
				<path class="st0" d="M137.7,134.7l-3.5,2.5c-0.4,0.3-0.9,0.2-1.1-0.2l-0.6-0.9c-0.3-0.4-0.2-0.9,0.2-1.1l3.5-2.5
					c0.4-0.3,0.9-0.2,1.1,0.2l0.6,0.9C138.1,134,138,134.5,137.7,134.7z"/>
				<path class="st0" d="M146.1,128.8l-3.5,2.5c-0.4,0.3-0.9,0.2-1.1-0.2l-0.6-0.9c-0.3-0.4-0.2-0.9,0.2-1.1l3.5-2.5
					c0.4-0.3,0.9-0.2,1.1,0.2l0.6,0.9C146.5,128.1,146.5,128.6,146.1,128.8z"/>
				<path class="st0" d="M154.5,122.9l-3.5,2.5c-0.4,0.3-0.9,0.2-1.1-0.2l-0.6-0.9c-0.3-0.4-0.2-0.9,0.2-1.1l3.5-2.5
					c0.4-0.3,0.9-0.2,1.1,0.2l0.6,0.9C155,122.2,154.9,122.7,154.5,122.9z"/>
				<path class="st0" d="M163,117l-3.5,2.5c-0.4,0.3-0.9,0.2-1.1-0.2l-0.6-0.9c-0.3-0.4-0.2-0.9,0.2-1.1l3.5-2.5
					c0.4-0.3,0.9-0.2,1.1,0.2l0.6,0.9C163.4,116.3,163.3,116.8,163,117z"/>
				<path class="st0" d="M171.4,111.1l-3.5,2.5c-0.4,0.3-0.9,0.2-1.1-0.2l-0.6-0.9c-0.3-0.4-0.2-0.9,0.2-1.1l3.5-2.5
					c0.4-0.3,0.9-0.2,1.1,0.2l0.6,0.9C171.8,110.4,171.8,110.9,171.4,111.1z"/>
				<path class="st0" d="M179.8,105.2l-3.5,2.5c-0.4,0.3-0.9,0.2-1.1-0.2l-0.6-0.9c-0.3-0.4-0.2-0.9,0.2-1.1l3.5-2.5
					c0.4-0.3,0.9-0.2,1.1,0.2l0.6,0.9C180.3,104.5,180.2,105,179.8,105.2z"/>
				<path class="st0" d="M188.3,99.3l-3.5,2.5c-0.4,0.3-0.9,0.2-1.1-0.2l-0.6-0.9c-0.3-0.4-0.2-0.9,0.2-1.1l3.5-2.5
					c0.4-0.3,0.9-0.2,1.1,0.2l0.6,0.9C188.7,98.6,188.6,99.1,188.3,99.3z"/>
				<path class="st0" d="M196.7,93.4l-3.5,2.5c-0.4,0.3-0.9,0.2-1.1-0.2l-0.6-0.9c-0.3-0.4-0.2-0.9,0.2-1.1l3.5-2.5
					c0.4-0.3,0.9-0.2,1.1,0.2l0.6,0.9C197.1,92.7,197.1,93.2,196.7,93.4z"/>
			</g>
			<g>
				<path class="st0" d="M149,151.7l-3.5,2.5c-0.4,0.3-0.9,0.2-1.1-0.2l-0.6-0.9c-0.3-0.4-0.2-0.9,0.2-1.1l3.5-2.5
					c0.4-0.3,0.9-0.2,1.1,0.2l0.6,0.9C149.4,150.9,149.3,151.4,149,151.7z"/>
				<path class="st0" d="M157.4,145.8l-3.5,2.5c-0.4,0.3-0.9,0.2-1.1-0.2l-0.6-0.9c-0.3-0.4-0.2-0.9,0.2-1.1l3.5-2.5
					c0.4-0.3,0.9-0.2,1.1,0.2l0.6,0.9C157.8,145,157.8,145.5,157.4,145.8z"/>
				<path class="st0" d="M165.8,139.8l-3.5,2.5c-0.4,0.3-0.9,0.2-1.1-0.2l-0.6-0.9c-0.3-0.4-0.2-0.9,0.2-1.1l3.5-2.5
					c0.4-0.3,0.9-0.2,1.1,0.2l0.6,0.9C166.3,139.1,166.2,139.6,165.8,139.8z"/>
				<path class="st0" d="M174.3,133.9l-3.5,2.5c-0.4,0.3-0.9,0.2-1.1-0.2l-0.6-0.9c-0.3-0.4-0.2-0.9,0.2-1.1l3.5-2.5
					c0.4-0.3,0.9-0.2,1.1,0.2l0.6,0.9C174.7,133.2,174.6,133.7,174.3,133.9z"/>
				<path class="st0" d="M182.7,128l-3.5,2.5c-0.4,0.3-0.9,0.2-1.1-0.2l-0.6-0.9c-0.3-0.4-0.2-0.9,0.2-1.1l3.5-2.5
					c0.4-0.3,0.9-0.2,1.1,0.2l0.6,0.9C183.1,127.3,183.1,127.8,182.7,128z"/>
				<path class="st0" d="M191.1,122.1l-3.5,2.5c-0.4,0.3-0.9,0.2-1.1-0.2l-0.6-0.9c-0.3-0.4-0.2-0.9,0.2-1.1l3.5-2.5
					c0.4-0.3,0.9-0.2,1.1,0.2l0.6,0.9C191.6,121.4,191.5,121.9,191.1,122.1z"/>
				<path class="st0" d="M199.6,116.2l-3.5,2.5c-0.4,0.3-0.9,0.2-1.1-0.2l-0.6-0.9c-0.3-0.4-0.2-0.9,0.2-1.1l3.5-2.5
					c0.4-0.3,0.9-0.2,1.1,0.2l0.6,0.9C200,115.5,199.9,116,199.6,116.2z"/>
				<path class="st0" d="M208,110.3l-3.5,2.5c-0.4,0.3-0.9,0.2-1.1-0.2l-0.6-0.9c-0.3-0.4-0.2-0.9,0.2-1.1l3.5-2.5
					c0.4-0.3,0.9-0.2,1.1,0.2l0.6,0.9C208.4,109.6,208.4,110.1,208,110.3z"/>
			</g>
			<path class="st0" d="M217.3,78.7c0,0.1,0,0.1,0,0.2c-0.2,0.5-0.4,1-0.6,1.6c-0.2,0.6-0.5,1.3-0.7,1.9c0,0.1-0.1,0.2-0.1,0.3
				c-1.5-0.3-3-0.3-4.5,0.1c-0.2-1-0.7-3.3-0.7-3.3c0-0.1,0.7-0.4,0.7-0.4c0.3-0.1,0.5-0.2,0.8-0.3c0.5-0.2,1.1-0.3,1.6-0.4
				c1.1-0.1,2.2-0.1,3.3,0.2C217.1,78.6,217.2,78.6,217.3,78.7C217.3,78.6,217.3,78.7,217.3,78.7z"/>
			<path class="st0" d="M222,79.6c-0.9-0.2-1.7-0.3-2.6-0.3l-1.9,4.3c1.3,0,2.4,1.2,3.1,2.5c1.7-1.3,5.3-4,5.3-4
				C224.9,80.8,223.5,80,222,79.6z"/>
			<path class="st0" d="M227.1,93.1c-0.1,0-0.1,0-0.2,0c-0.6,0-1.1,0-1.7,0c-0.7,0-1.3,0-2,0c-0.1,0-0.2,0-0.4,0
				c-0.2,1.5-0.8,2.9-1.7,4.1c0.9,0.6,2.8,1.9,2.8,1.9c0,0,0.6-0.5,0.6-0.5c0.2-0.2,0.4-0.4,0.6-0.6c0.4-0.4,0.7-0.9,0.9-1.4
				c0.5-1,0.9-2.1,1-3.2C227.1,93.3,227.2,93.2,227.1,93.1C227.1,93.1,227.1,93.1,227.1,93.1z"/>
			<path class="st0" d="M227.9,88.4c-0.1,0.9-0.3,1.8-0.6,2.6l-4.7,0.2c0.5-1.2-0.3-2.7-1.2-3.8c1.8-1.1,5.7-3.4,5.7-3.4
				C227.9,85.3,228.1,86.9,227.9,88.4z"/>
			<path class="st4" d="M230.5,66.8c5.2,4.4,9.5,9.9,12.5,16.1"/>
		</g>
		<g>
			<g class="st12">
				<g>
					<circle class="st0" cx="230.9" cy="155.8" r="41.2"/>
					<circle class="st0" cx="230.9" cy="155.8" r="41.2"/>
				</g>
			</g>
			<g>
				<circle class="st8" cx="236.4" cy="152.7" r="41.2"/>
				<circle class="st7" cx="236.4" cy="152.7" r="41.2"/>
			</g>
		</g>
		<g>
			<path class="st3" d="M234.9,126.6c6.8,4.6,15.6,6.1,23.5,4.2v26.2c0,2.6-0.4,5.2-1.4,7.6c-1.6,4-4.1,7.7-7.1,10.7
				c-4.3,4.2-9.5,7.3-15,9.7c-5.5-2.4-10.7-5.5-15-9.7c-3.1-3-5.6-6.7-7.1-10.7c-1-2.4-1.4-5-1.4-7.6v-26.2
				C219.3,132.7,228.1,131.2,234.9,126.6z"/>
			<path class="st4" d="M234.9,126.6c6.8,4.6,15.6,6.1,23.5,4.2v26.2c0,2.6-0.4,5.2-1.4,7.6c-1.6,4-4.1,7.7-7.1,10.7
				c-4.3,4.2-9.5,7.3-15,9.7c-5.5-2.4-10.7-5.5-15-9.7c-3.1-3-5.6-6.7-7.1-10.7c-1-2.4-1.4-5-1.4-7.6v-26.2
				C219.3,132.7,228.1,131.2,234.9,126.6z"/>
			<path class="st8" d="M234.9,132.6c5.4,3.6,12.3,4.8,18.7,3.3v20.8c0,2.1-0.3,4.1-1.1,6c-1.3,3.2-3.2,6.1-5.7,8.5
				c-3.4,3.3-7.6,5.8-11.9,7.7c-4.3-1.9-8.5-4.4-11.9-7.7c-2.4-2.4-4.4-5.3-5.7-8.5c-0.8-1.9-1.1-4-1.1-6V136
				C222.6,137.5,229.5,136.3,234.9,132.6z"/>
		</g>
		<polyline class="st13" points="226.3,156.7 230.9,161.7 245.2,147.2 		"/>
	</g>
</g>
</svg>
